<?xml version="1.0" encoding="utf-8"?>
<!-- Generator: Adobe Illustrator 27.0.1, SVG Export Plug-In . SVG Version: 6.00 Build 0)  -->
<svg version="1.1" id="Ñëîé_1" xmlns="http://www.w3.org/2000/svg" xmlns:xlink="http://www.w3.org/1999/xlink" x="0px" y="0px"
	 viewBox="0 0 1060.4 670.2" style="enable-background:new 0 0 1060.4 670.2;" xml:space="preserve">
<style type="text/css">
	.st0{fill:#14B8A6;}
	.st1{fill:#0C4A6E;}
	.st2{fill:#FB7185;}
	.st3{fill:#FFFFFF;}
	.st4{fill:#6EFF90;}
</style>
<g>
	<g>
		<path class="st0" d="M411.3,604.6c-9.4,0.4-16.6,8.5-16.6,17.9c0,6.6-5.4,11.9-11.9,11.9h-42.7l0,0c-5.4,0-9.8-4-10.6-9.4
			c-4.6-33.9-33.6-60.2-68.8-60.2h-107v72.4c0,3.9-3.2,7.1-7.1,7.1h-7.8c-11.9,0-21.8,8.3-24.3,19.5c-0.6,2.8,1.6,5.4,4.4,5.4h201.3
			h9.9h54c25,0,45.3-20.3,45.3-45.3V622C429.5,612.1,421.3,604.1,411.3,604.6z"/>
		<g>
			<g>
				<path class="st1" d="M123.9,670.1c-1.7,0-3.2-0.7-4.2-2c-1-1.3-1.4-2.9-1.1-4.5c0.1-0.5,0.6-0.8,1.1-0.7
					c0.5,0.1,0.8,0.6,0.7,1.1c-0.2,1,0,2.1,0.7,2.9c0.7,0.9,1.7,1.3,2.8,1.3c0.5,0,0.9,0.4,0.9,0.9
					C124.8,669.7,124.4,670.1,123.9,670.1z"/>
				<path class="st1" d="M128.9,670.1c-1.7,0-3.2-0.7-4.2-2c-1-1.3-1.4-2.9-1.1-4.5c0.1-0.5,0.6-0.8,1.1-0.7
					c0.5,0.1,0.8,0.6,0.7,1.1c-0.2,1,0,2.1,0.7,2.9c0.7,0.9,1.7,1.3,2.8,1.3c0.5,0,0.9,0.4,0.9,0.9
					C129.8,669.7,129.4,670.1,128.9,670.1z"/>
				<path class="st1" d="M133.8,670.1c-1.7,0-3.2-0.7-4.2-2c-1-1.3-1.4-2.9-1.1-4.5c0.1-0.5,0.6-0.8,1.1-0.7
					c0.5,0.1,0.8,0.6,0.7,1.1c-0.2,1,0,2.1,0.7,2.9c0.7,0.9,1.7,1.3,2.8,1.3c0.5,0,0.9,0.4,0.9,0.9
					C134.8,669.7,134.4,670.1,133.8,670.1z"/>
			</g>
			<g>
				<path class="st1" d="M173.6,670.1c-1.7,0-3.2-0.7-4.2-2c-1-1.3-1.4-2.9-1.1-4.5c0.1-0.5,0.6-0.8,1.1-0.7
					c0.5,0.1,0.8,0.6,0.7,1.1c-0.2,1,0,2.1,0.7,2.9c0.7,0.9,1.7,1.3,2.8,1.3c0.5,0,0.9,0.4,0.9,0.9
					C174.5,669.7,174.1,670.1,173.6,670.1z"/>
				<path class="st1" d="M178.6,670.1c-1.7,0-3.2-0.7-4.2-2c-1-1.3-1.4-2.9-1.1-4.5c0.1-0.5,0.6-0.8,1.1-0.7
					c0.5,0.1,0.8,0.6,0.7,1.1c-0.2,1,0,2.1,0.7,2.9c0.7,0.9,1.7,1.3,2.8,1.3c0.5,0,0.9,0.4,0.9,0.9
					C179.5,669.7,179.1,670.1,178.6,670.1z"/>
				<path class="st1" d="M183.5,670.1c-1.7,0-3.2-0.7-4.2-2c-1-1.3-1.4-2.9-1.1-4.5c0.1-0.5,0.6-0.8,1.1-0.7
					c0.5,0.1,0.8,0.6,0.7,1.1c-0.2,1,0,2.1,0.7,2.9c0.7,0.9,1.7,1.3,2.8,1.3c0.5,0,0.9,0.4,0.9,0.9
					C184.5,669.7,184.1,670.1,183.5,670.1z"/>
			</g>
			<g>
				<path class="st1" d="M265.5,670.1c-1.7,0-3.2-0.7-4.2-2c-1-1.3-1.4-2.9-1.1-4.5c0.1-0.5,0.6-0.8,1.1-0.7
					c0.5,0.1,0.8,0.6,0.7,1.1c-0.2,1,0,2.1,0.7,2.9c0.7,0.9,1.7,1.3,2.8,1.3c0.5,0,0.9,0.4,0.9,0.9
					C266.5,669.7,266,670.1,265.5,670.1z"/>
				<path class="st1" d="M270.5,670.1c-1.7,0-3.2-0.7-4.2-2c-1-1.3-1.4-2.9-1.1-4.5c0.1-0.5,0.6-0.8,1.1-0.7
					c0.5,0.1,0.8,0.6,0.7,1.1c-0.2,1,0,2.1,0.7,2.9c0.7,0.9,1.7,1.3,2.8,1.3c0.5,0,0.9,0.4,0.9,0.9
					C271.4,669.7,271,670.1,270.5,670.1z"/>
				<path class="st1" d="M275.5,670.1c-1.7,0-3.2-0.7-4.2-2c-1-1.3-1.4-2.9-1.1-4.5c0.1-0.5,0.6-0.8,1.1-0.7
					c0.5,0.1,0.8,0.6,0.7,1.1c-0.2,1,0,2.1,0.7,2.9c0.7,0.9,1.7,1.3,2.8,1.3c0.5,0,0.9,0.4,0.9,0.9
					C276.4,669.7,276,670.1,275.5,670.1z"/>
			</g>
			<g>
				<path class="st1" d="M384.2,670.1H118.9c-1.7,0-3.2-0.7-4.2-2c-1-1.3-1.4-2.9-1.1-4.5c2.6-11.7,13.2-20.2,25.2-20.2h7.8
					c3.4,0,6.1-2.8,6.1-6.1v-73.4h108c35,0,65,26.2,69.7,61c0.7,4.9,4.8,8.6,9.6,8.6h42.7c3,0,5.7-1.2,7.8-3.2
					c2.1-2.1,3.2-4.8,3.2-7.7c0-10.1,7.6-18.4,17.4-18.9l0,0c5.1-0.2,9.9,1.6,13.5,5c3.7,3.5,5.7,8.2,5.7,13.3v1.9
					C430.5,649.4,409.7,670.1,384.2,670.1z M138.8,645.3c-11.1,0-21,7.9-23.4,18.7c-0.2,1,0,2.1,0.7,2.9c0.7,0.9,1.7,1.3,2.8,1.3
					h265.3c24.5,0,44.4-19.9,44.4-44.4V622c0-4.5-1.8-8.8-5.1-11.9c-3.3-3.1-7.6-4.7-12.2-4.5l0,0c-8.7,0.4-15.7,8-15.7,17
					c0,3.4-1.3,6.6-3.7,9c-2.4,2.4-5.7,3.8-9.1,3.8h-42.7c-5.8,0-10.7-4.4-11.5-10.2c-4.6-33.9-33.7-59.4-67.8-59.4H154.6v71.5
					c0,4.4-3.6,8-8,8H138.8z"/>
			</g>
			<g>
				<path class="st1" d="M203.4,670.1h-34.8c-1.7,0-3.2-0.7-4.2-2c-1-1.3-1.4-2.9-1.1-4.5c2.6-11.7,13.2-20.2,25.2-20.2h14.9
					c0.5,0,0.9,0.4,0.9,0.9c0,0.5-0.4,0.9-0.9,0.9h-14.9c-11.1,0-21,7.9-23.4,18.7c-0.2,1,0,2.1,0.7,2.9c0.7,0.9,1.7,1.3,2.8,1.3
					h34.8c0.5,0,0.9,0.4,0.9,0.9C204.3,669.7,203.9,670.1,203.4,670.1z"/>
			</g>
			<g>
				<g>
					<path class="st1" d="M260.6,670.1c-1.7,0-3.2-0.7-4.2-2c-1-1.3-1.4-2.9-1.1-4.5c2.6-11.7,13.2-20.2,25.2-20.2h6.3
						c4.2,0,7.7-3.4,7.7-7.7v-16.3c0-0.5,0.4-0.9,0.9-0.9c0.5,0,0.9,0.4,0.9,0.9v16.3c0,5.3-4.3,9.5-9.5,9.5h-6.3
						c-11.1,0-21,7.9-23.4,18.7c-0.2,1,0,2.1,0.7,2.9c0.7,0.9,1.7,1.3,2.8,1.3c0.5,0,0.9,0.4,0.9,0.9
						C261.5,669.7,261.1,670.1,260.6,670.1z"/>
				</g>
			</g>
			<polygon class="st1" points="147,644.3 142,656.6 137,644.3 			"/>
			<g>
				<polygon class="st1" points="287,644.3 282.1,656.6 277.1,644.3 				"/>
				<polygon class="st1" points="299.2,669.3 304.2,657 309.2,669.3 				"/>
			</g>
			<g>
				<polygon class="st1" points="199.1,644.3 194.1,656.6 189.1,644.3 				"/>
				<polygon class="st1" points="204.2,669.2 209.1,654.5 214.1,669.2 				"/>
			</g>
			<g>
				<polygon class="st1" points="235.9,605.9 230.9,620.6 235.9,635.3 240.8,620.6 				"/>
				<polygon class="st1" points="255.7,613.4 250.8,628.1 255.7,642.8 260.7,628.1 				"/>
				<polygon class="st1" points="274.4,596 269.4,610.7 274.4,625.4 279.4,610.7 				"/>
			</g>
			<g>
				<polygon class="st1" points="350.2,634.4 344,659 337.7,634.4 				"/>
				<polygon class="st1" points="387.1,634.4 380.9,659 374.7,634.4 				"/>
				<polygon class="st1" points="356.4,669.3 362.6,648.3 368.8,669.3 				"/>
				<polygon class="st1" points="395.3,618.1 409.4,622.3 394,626.8 				"/>
				<polygon class="st1" points="415.6,656.5 403.3,639.9 423.1,647.2 				"/>
			</g>
		</g>
		<g>
			<rect x="157.8" y="615.6" class="st1" width="1.8" height="1.8"/>
			<rect x="163.3" y="615.6" class="st1" width="1.8" height="1.8"/>
			<rect x="201.7" y="615.6" class="st1" width="1.8" height="1.8"/>
			<rect x="212.7" y="615.6" class="st1" width="1.8" height="1.8"/>
			<rect x="223.7" y="615.6" class="st1" width="1.8" height="1.8"/>
			<rect x="207.2" y="615.6" class="st1" width="1.8" height="1.8"/>
			<rect x="218.2" y="615.6" class="st1" width="1.8" height="1.8"/>
			<rect x="157.8" y="621.1" class="st1" width="1.8" height="1.8"/>
			<rect x="163.3" y="621.1" class="st1" width="1.8" height="1.8"/>
			<rect x="168.8" y="621.1" class="st1" width="1.8" height="1.8"/>
			<rect x="190.8" y="621.1" class="st1" width="1.8" height="1.8"/>
			<rect x="179.8" y="621.1" class="st1" width="1.8" height="1.8"/>
			<rect x="201.7" y="621.1" class="st1" width="1.8" height="1.8"/>
			<rect x="212.7" y="621.1" class="st1" width="1.8" height="1.8"/>
			<rect x="174.3" y="621.1" class="st1" width="1.8" height="1.8"/>
			<rect x="185.3" y="621.1" class="st1" width="1.8" height="1.8"/>
			<rect x="196.2" y="621.1" class="st1" width="1.8" height="1.8"/>
			<rect x="207.2" y="621.1" class="st1" width="1.8" height="1.8"/>
			<rect x="218.2" y="621.1" class="st1" width="1.8" height="1.8"/>
			<rect x="168.8" y="626.6" class="st1" width="1.8" height="1.8"/>
			<rect x="190.8" y="626.6" class="st1" width="1.8" height="1.8"/>
			<rect x="179.8" y="626.6" class="st1" width="1.8" height="1.8"/>
			<rect x="201.7" y="626.6" class="st1" width="1.8" height="1.8"/>
			<rect x="174.3" y="626.6" class="st1" width="1.8" height="1.8"/>
			<rect x="185.3" y="626.6" class="st1" width="1.8" height="1.8"/>
			<rect x="196.2" y="626.6" class="st1" width="1.8" height="1.8"/>
			<rect x="190.8" y="632.1" class="st1" width="1.8" height="1.8"/>
			<rect x="179.8" y="632.1" class="st1" width="1.8" height="1.8"/>
			<rect x="185.3" y="632.1" class="st1" width="1.8" height="1.8"/>
			<rect x="196.2" y="632.1" class="st1" width="1.8" height="1.8"/>
			<rect x="207.2" y="626.6" class="st1" width="1.8" height="1.8"/>
			<rect x="223.7" y="604.7" class="st1" width="1.8" height="1.8"/>
			<rect x="229.2" y="604.7" class="st1" width="1.8" height="1.8"/>
			<rect x="212.7" y="610.2" class="st1" width="1.8" height="1.8"/>
			<rect x="223.7" y="610.2" class="st1" width="1.8" height="1.8"/>
			<rect x="218.2" y="610.2" class="st1" width="1.8" height="1.8"/>
			<rect x="229.2" y="610.2" class="st1" width="1.8" height="1.8"/>
			<rect x="234.7" y="593.7" class="st1" width="1.8" height="1.8"/>
			<rect x="229.2" y="593.7" class="st1" width="1.8" height="1.8"/>
			<rect x="234.7" y="599.2" class="st1" width="1.8" height="1.8"/>
			<rect x="229.2" y="599.2" class="st1" width="1.8" height="1.8"/>
			<rect x="234.7" y="582.7" class="st1" width="1.8" height="1.8"/>
			<rect x="234.7" y="588.2" class="st1" width="1.8" height="1.8"/>
		</g>
	</g>
	<g>
		<path class="st0" d="M208.4,520.1L208.4,520.1c-6.8-3.2-14.4-5-22.4-5h0c-8,0-15.6,1.8-22.4,5v-0.1l-29.8-24.8v72.1
			c0,28.8,23.4,52.2,52.2,52.2h0c28.8,0,52.2-23.4,52.2-52.2v-72.1L208.4,520.1z"/>
		<g>
			<path class="st2" d="M157.1,523.9l-18.3-13.7v34.9C142.9,536.5,149.2,529.1,157.1,523.9z"/>
			<path class="st2" d="M233.2,545.1v-34.9l-18.3,13.7C222.8,529.1,229.2,536.5,233.2,545.1z"/>
		</g>
		<g>
			<g>
				<path class="st3" d="M166.1,566.1h-9.9c-4.1,0-7.5-3.3-7.5-7.5l0,0c0-4.1,3.3-7.5,7.5-7.5h9.9c4.1,0,7.5,3.3,7.5,7.5l0,0
					C173.6,562.7,170.3,566.1,166.1,566.1z"/>
				<path class="st1" d="M166.1,567h-9.9c-4.6,0-8.4-3.8-8.4-8.4c0-4.6,3.8-8.4,8.4-8.4h9.9c4.6,0,8.4,3.8,8.4,8.4
					C174.5,563.2,170.8,567,166.1,567z M156.2,552.1c-3.6,0-6.5,2.9-6.5,6.5s2.9,6.5,6.5,6.5h9.9c3.6,0,6.5-2.9,6.5-6.5
					s-2.9-6.5-6.5-6.5H156.2z"/>
				<path class="st1" d="M170.1,555.5c0-1.2-0.1-2.3-0.3-3.3c-1.1-0.6-2.4-1-3.7-1h-5.9c-0.3,1.3-0.5,2.8-0.5,4.3
					c0,5.8,2.3,10.6,5.2,10.6S170.1,561.3,170.1,555.5z"/>
				<path class="st3" d="M163.7,557.4c0,1.4-1.1,2.5-2.5,2.5c-1.4,0-2.5-1.1-2.5-2.5c0-1.4,1.1-2.5,2.5-2.5
					C162.5,554.9,163.7,556,163.7,557.4z"/>
			</g>
			<g>
				<path class="st3" d="M215.8,566.1h-9.9c-4.1,0-7.5-3.3-7.5-7.5l0,0c0-4.1,3.3-7.5,7.5-7.5h9.9c4.1,0,7.5,3.3,7.5,7.5l0,0
					C223.3,562.7,220,566.1,215.8,566.1z"/>
				<path class="st1" d="M215.8,567h-9.9c-4.6,0-8.4-3.8-8.4-8.4c0-4.6,3.8-8.4,8.4-8.4h9.9c4.6,0,8.4,3.8,8.4,8.4
					C224.2,563.2,220.5,567,215.8,567z M205.9,552.1c-3.6,0-6.5,2.9-6.5,6.5s2.9,6.5,6.5,6.5h9.9c3.6,0,6.5-2.9,6.5-6.5
					s-2.9-6.5-6.5-6.5H205.9z"/>
				<path class="st1" d="M219.8,555.5c0-1.2-0.1-2.3-0.3-3.3c-1.1-0.6-2.4-1-3.7-1H210c-0.3,1.3-0.5,2.8-0.5,4.3
					c0,5.8,2.3,10.6,5.2,10.6C217.5,566.1,219.8,561.3,219.8,555.5z"/>
				<circle class="st3" cx="210.9" cy="557.4" r="2.5"/>
			</g>
		</g>
		<g>
			<path class="st1" d="M208.2,519c-4.3-2-8.9-3.4-13.6-4.1c0,0,0,0,0,0c-0.8-0.1-1.7-0.2-2.5-0.3c-0.2,0-0.5,0-0.7-0.1
				c-0.7-0.1-1.3-0.1-2-0.2c-0.2,0-0.5,0-0.7,0c-0.9,0-1.8-0.1-2.6-0.1s-1.8,0-2.6,0.1c-0.2,0-0.5,0-0.7,0c-0.7,0-1.3,0.1-2,0.2
				c-0.2,0-0.5,0-0.7,0.1c-0.8,0.1-1.7,0.2-2.5,0.3c0,0,0,0,0,0c-4.7,0.8-9.3,2.2-13.6,4.1l-30.9-25.8v74
				c0,29.3,23.8,53.1,53.1,53.1s53.1-23.8,53.1-53.1v-74L208.2,519z M237.3,567.3c0,28.3-23,51.2-51.2,51.2s-51.2-23-51.2-51.2
				v-70.1l27.2,22.7c-3.1,1.6-6.1,3.5-8.9,5.7c-0.4,0.3-0.5,0.9-0.2,1.3c0.3,0.4,0.9,0.5,1.3,0.2c2.7-2.2,5.7-4,8.7-5.6l1.1-0.5
				c5.1-2.4,10.5-4,16-4.6c0.2,0,0.4,0,0.6-0.1c0.7-0.1,1.3-0.1,2-0.2c0.2,0,0.5,0,0.7,0c0.9,0,1.7-0.1,2.6-0.1s1.7,0,2.6,0.1
				c0.2,0,0.5,0,0.7,0c0.7,0,1.3,0.1,2,0.2c0.2,0,0.4,0,0.6,0.1c5.6,0.6,10.9,2.2,16,4.6l1.1,0.5c3,1.5,6,3.4,8.7,5.6
				c0.2,0.1,0.4,0.2,0.6,0.2c0.3,0,0.5-0.1,0.7-0.4c0.3-0.4,0.2-1-0.2-1.3c-2.8-2.2-5.8-4.1-8.9-5.7l27.2-22.7V567.3z"/>
			<path class="st1" d="M200.9,588.7c-0.5,0-0.9,0.4-0.9,0.9c0,3.6-2.9,6.5-6.5,6.5c-3.6,0-6.5-2.9-6.5-6.5V586
				c0.6-0.2,1.1-0.6,1.5-1.2l4.3-7.2c0.9-1.4-0.2-3.3-1.9-3.3h-9.6c-1.7,0-2.7,1.8-1.9,3.3l4.3,7.2c0.4,0.6,0.9,1,1.5,1.2v3.7
				c0,3.6-2.9,6.5-6.5,6.5s-6.5-2.9-6.5-6.5c0-0.5-0.4-0.9-0.9-0.9c-0.5,0-0.9,0.4-0.9,0.9c0,4.6,3.8,8.4,8.4,8.4
				c3.2,0,6.1-1.9,7.5-4.6c1.4,2.7,4.2,4.6,7.5,4.6c4.6,0,8.4-3.8,8.4-8.4C201.9,589.2,201.4,588.7,200.9,588.7z"/>
			<g>
				<path class="st1" d="M158.7,585.6H99.1c-0.5,0-0.9-0.4-0.9-0.9c0-0.5,0.4-0.9,0.9-0.9h59.6c0.5,0,0.9,0.4,0.9,0.9
					C159.6,585.2,159.2,585.6,158.7,585.6z"/>
				<path class="st1" d="M163.7,580.7c-0.1,0-0.1,0-0.2,0l-49.7-9.9c-0.5-0.1-0.8-0.6-0.7-1.1c0.1-0.5,0.6-0.8,1.1-0.7l49.7,9.9
					c0.5,0.1,0.8,0.6,0.7,1.1C164.5,580.4,164.1,580.7,163.7,580.7z"/>
				<path class="st1" d="M118.9,600.5c-0.4,0-0.8-0.3-0.9-0.7c-0.1-0.5,0.2-1,0.7-1.1l44.7-9.9c0.5-0.1,1,0.2,1.1,0.7
					c0.1,0.5-0.2,1-0.7,1.1l-44.7,9.9C119.1,600.5,119,600.5,118.9,600.5z"/>
				<path class="st1" d="M273,585.6h-59.6c-0.5,0-0.9-0.4-0.9-0.9c0-0.5,0.4-0.9,0.9-0.9H273c0.5,0,0.9,0.4,0.9,0.9
					C273.9,585.2,273.5,585.6,273,585.6z"/>
				<path class="st1" d="M208.4,580.7c-0.4,0-0.8-0.3-0.9-0.7c-0.1-0.5,0.2-1,0.7-1.1l49.7-9.9c0.5-0.1,1,0.2,1.1,0.7
					c0.1,0.5-0.2,1-0.7,1.1l-49.7,9.9C208.5,580.7,208.4,580.7,208.4,580.7z"/>
				<path class="st1" d="M253.1,600.5c-0.1,0-0.1,0-0.2,0l-44.7-9.9c-0.5-0.1-0.8-0.6-0.7-1.1c0.1-0.5,0.6-0.8,1.1-0.7l44.7,9.9
					c0.5,0.1,0.8,0.6,0.7,1.1C253.9,600.3,253.5,600.5,253.1,600.5z"/>
			</g>
			<g>
				<polygon class="st1" points="133.8,562.3 146.1,567.3 133.8,572.3 				"/>
				<polygon class="st1" points="133.8,549.9 142.3,553.6 133.8,557.4 				"/>
			</g>
			<g>
				<polygon class="st1" points="238.2,572.3 226,567.3 238.2,562.3 				"/>
				<polygon class="st1" points="238.2,557.4 229.7,553.6 238.2,549.9 				"/>
			</g>
			<g>
				<polygon class="st1" points="193.5,515.1 186,536 178.6,515.1 				"/>
				<polygon class="st1" points="170.2,517.9 169.5,532.5 160.7,520.8 				"/>
				<polygon class="st1" points="210.3,520.8 201.4,532.5 200.8,517.9 				"/>
			</g>
		</g>
	</g>
</g>
<g>
	<g>
		<g>
			<path class="st3" d="M777.1,599.6H283.3c-6.3,0-11.5-5.1-11.5-11.5V298c0-6.3,5.1-11.5,11.5-11.5h493.9c6.3,0,11.5,5.1,11.5,11.5
				v290.1C788.6,594.5,783.5,599.6,777.1,599.6z"/>
			<path class="st3" d="M624.6,649.3h-34.8v-49.7H470.6v49.7h-34.8c-11,0-19.9,8.9-19.9,19.9v0h228.6v0
				C644.5,658.2,635.6,649.3,624.6,649.3z"/>
			<path class="st0" d="M547.6,587.5h-34.8c-4.3,0-7.8-3.5-7.8-7.8l0,0c0-4.3,3.5-7.8,7.8-7.8h34.8c4.3,0,7.8,3.5,7.8,7.8l0,0
				C555.4,584,551.9,587.5,547.6,587.5z"/>
		</g>
		<g>
			<rect x="286.7" y="541.9" class="st0" width="487" height="19.9"/>
			<g>
				<rect x="286.7" y="303.4" class="st0" width="487" height="19.9"/>
				<path class="st3" d="M759.4,313.3l4.3-4.3c0.4-0.4,0.4-1,0-1.3c-0.4-0.4-1-0.4-1.3,0l-4.3,4.3l-4.3-4.3c-0.4-0.4-1-0.4-1.3,0
					c-0.4,0.4-0.4,1,0,1.3l4.3,4.3l-4.3,4.3c-0.4,0.4-0.4,1,0,1.3c0.2,0.2,0.4,0.3,0.7,0.3s0.5-0.1,0.7-0.3l4.3-4.3l4.3,4.3
					c0.2,0.2,0.4,0.3,0.7,0.3c0.2,0,0.5-0.1,0.7-0.3c0.4-0.4,0.4-1,0-1.3L759.4,313.3z"/>
				<circle class="st3" cx="301.6" cy="313.3" r="5"/>
				<path class="st3" d="M321.5,313.3c0,2.7-2.2,5-5,5c-2.7,0-5-2.2-5-5c0-2.7,2.2-5,5-5C319.2,308.3,321.5,310.6,321.5,313.3z"/>
				<circle class="st3" cx="331.4" cy="313.3" r="5"/>
			</g>
			<g>
				<g>
					<rect x="638.1" y="486.9" class="st2" width="81.8" height="3.1"/>
					<rect x="582.3" y="476.1" class="st2" width="32.1" height="3.1"/>
					<rect x="662.7" y="465.3" class="st2" width="8.1" height="3.1"/>
					<rect x="551.2" y="454.5" class="st2" width="12.3" height="3.1"/>
					<rect x="551.2" y="443.7" class="st2" width="23.9" height="3.1"/>
					<rect x="589.6" y="357.7" class="st2" width="10.1" height="3.1"/>
					<rect x="551" y="411.8" class="st2" width="13.3" height="3.1"/>
					<rect x="550.9" y="390.2" class="st2" width="27.3" height="3.1"/>
					<rect x="599.3" y="379.4" class="st2" width="29.4" height="3.1"/>
					<rect x="608.8" y="432.3" class="st2" width="61.8" height="3.1"/>
				</g>
				<g>
					<rect x="504.6" y="497.7" class="st0" width="40.7" height="3.1"/>
					<rect x="504.6" y="454.5" class="st0" width="40.7" height="3.1"/>
					<rect x="522.9" y="486.9" class="st0" width="53.5" height="3.1"/>
					<rect x="504.6" y="443.7" class="st0" width="40.7" height="3.1"/>
					<rect x="522.9" y="476.1" class="st0" width="53.5" height="3.1"/>
					<rect x="522.9" y="465.3" class="st0" width="53.5" height="3.1"/>
					<rect x="582.3" y="486.9" class="st0" width="48.3" height="3.1"/>
					<rect x="619.8" y="476.1" class="st0" width="65" height="3.1"/>
					<rect x="582.3" y="465.3" class="st0" width="75.4" height="3.1"/>
					<rect x="676.5" y="465.3" class="st0" width="73.6" height="3.1"/>
					<rect x="551.2" y="497.7" class="st0" width="102.2" height="3.1"/>
					<rect x="570.4" y="454.5" class="st0" width="65" height="3.1"/>
					<rect x="643.5" y="454.5" class="st0" width="87.9" height="3.1"/>
					<rect x="581.4" y="443.7" class="st0" width="37" height="3.1"/>
					<rect x="625.3" y="443.7" class="st0" width="88.2" height="3.1"/>
					<rect x="504.6" y="411.8" class="st0" width="40.7" height="3.1"/>
					<rect x="468.1" y="357.7" class="st0" width="40.7" height="3.1"/>
					<rect x="514.2" y="357.7" class="st0" width="69.9" height="3.1"/>
					<rect x="468.1" y="368.5" class="st0" width="27.6" height="3.1"/>
					<rect x="501.9" y="368.5" class="st0" width="51.3" height="3.1"/>
					<rect x="559.5" y="368.5" class="st0" width="81.5" height="3.1"/>
					<rect x="504.6" y="390.2" class="st0" width="40.7" height="3.1"/>
					<rect x="504.6" y="401" class="st0" width="40.7" height="3.1"/>
					<rect x="570" y="411.8" class="st0" width="62.3" height="3.1"/>
					<rect x="638.1" y="411.8" class="st0" width="62.3" height="3.1"/>
					<rect x="583.8" y="390.2" class="st0" width="80.6" height="3.1"/>
					<rect x="670.1" y="390.2" class="st0" width="80.6" height="3.1"/>
					<rect x="551.2" y="401" class="st0" width="40.7" height="3.1"/>
					<rect x="597.9" y="401" class="st0" width="85.1" height="3.1"/>
					<rect x="486.4" y="379.4" class="st0" width="40.7" height="3.1"/>
					<rect x="533.7" y="379.4" class="st0" width="58.9" height="3.1"/>
					<rect x="635.3" y="379.4" class="st0" width="102.1" height="3.1"/>
					<rect x="486.4" y="422.6" class="st0" width="30.8" height="3.1"/>
					<rect x="523.7" y="422.6" class="st0" width="51.2" height="3.1"/>
					<rect x="581.4" y="422.6" class="st0" width="61.8" height="3.1"/>
					<rect x="486.4" y="432.3" class="st0" width="58.2" height="3.1"/>
					<rect x="551.1" y="432.3" class="st0" width="51.2" height="3.1"/>
					<rect x="468.1" y="508.5" class="st0" width="51.5" height="3.1"/>
				</g>
				<rect x="450.5" y="340.6" class="st2" width="2.7" height="188.6"/>
				<g>
					<rect x="433.3" y="357.7" class="st0" width="3.1" height="3.1"/>
					<rect x="433.3" y="368.5" class="st0" width="3.1" height="3.1"/>
					<rect x="433.3" y="346.9" class="st0" width="3.1" height="3.1"/>
					<rect x="433.3" y="379.4" class="st0" width="3.1" height="3.1"/>
					<rect x="433.3" y="390.2" class="st0" width="3.1" height="3.1"/>
					<rect x="433.3" y="411.8" class="st0" width="3.1" height="3.1"/>
					<rect x="433.3" y="422.6" class="st0" width="3.1" height="3.1"/>
					<rect x="433.3" y="401" class="st0" width="3.1" height="3.1"/>
					<rect x="433.3" y="433.4" class="st0" width="3.1" height="3.1"/>
					<rect x="433.3" y="444.2" class="st0" width="3.1" height="3.1"/>
					<rect x="433.3" y="455" class="st0" width="3.1" height="3.1"/>
					<rect x="433.3" y="465.8" class="st0" width="3.1" height="3.1"/>
					<rect x="433.3" y="487.4" class="st0" width="3.1" height="3.1"/>
					<rect x="433.3" y="498.3" class="st0" width="3.1" height="3.1"/>
					<rect x="433.3" y="476.6" class="st0" width="3.1" height="3.1"/>
					<rect x="433.3" y="509.1" class="st0" width="3.1" height="3.1"/>
					<rect x="433.3" y="519.9" class="st0" width="3.1" height="3.1"/>
				</g>
			</g>
			<g>
				<rect x="377.8" y="486.9" class="st4" width="19.7" height="3.1"/>
				<rect x="334.5" y="476.1" class="st4" width="32.1" height="3.1"/>
				<rect x="367.7" y="465.3" class="st4" width="8.1" height="3.1"/>
				<rect x="333.5" y="508.5" class="st4" width="8.1" height="3.1"/>
				<rect x="320.8" y="454.5" class="st4" width="12.3" height="3.1"/>
				<rect x="346.9" y="443.7" class="st4" width="10.2" height="3.1"/>
				<rect x="384.1" y="357.7" class="st4" width="10.1" height="3.1"/>
				<rect x="346.7" y="411.8" class="st4" width="13.3" height="3.1"/>
				<rect x="339.2" y="390.2" class="st4" width="34.7" height="3.1"/>
				<rect x="362.6" y="379.4" class="st4" width="41.8" height="3.1"/>
				<rect x="373.4" y="432.3" class="st4" width="27.1" height="3.1"/>
				<rect x="299.8" y="497.7" class="st0" width="40.7" height="3.1"/>
				<rect x="299.8" y="454.5" class="st0" width="14.6" height="3.1"/>
				<rect x="299.8" y="486.9" class="st0" width="53.5" height="3.1"/>
				<rect x="299.8" y="443.7" class="st0" width="40.7" height="3.1"/>
				<rect x="299.8" y="476.1" class="st0" width="27.4" height="3.1"/>
				<rect x="299.8" y="465.3" class="st0" width="41" height="3.1"/>
				<rect x="359.3" y="486.9" class="st0" width="11" height="3.1"/>
				<rect x="348.2" y="508.5" class="st0" width="11" height="3.1"/>
				<rect x="372" y="476.1" class="st0" width="22.8" height="3.1"/>
				<rect x="349.4" y="465.3" class="st0" width="13.3" height="3.1"/>
				<rect x="381.4" y="465.3" class="st0" width="16.4" height="3.1"/>
				<rect x="346.9" y="497.7" class="st0" width="40.1" height="3.1"/>
				<rect x="340" y="454.5" class="st0" width="15.3" height="3.1"/>
				<rect x="363.4" y="454.5" class="st0" width="25.8" height="3.1"/>
				<rect x="363.4" y="443.7" class="st0" width="12.2" height="3.1"/>
				<rect x="382.4" y="443.7" class="st0" width="21.1" height="3.1"/>
				<rect x="299.8" y="411.8" class="st0" width="40.7" height="3.1"/>
				<rect x="299.8" y="357.7" class="st0" width="40.7" height="3.1"/>
				<rect x="345.9" y="357.7" class="st0" width="32.6" height="3.1"/>
				<rect x="299.8" y="368.5" class="st0" width="27.6" height="3.1"/>
				<rect x="333.6" y="368.5" class="st0" width="14.1" height="3.1"/>
				<rect x="353.9" y="368.5" class="st0" width="31.8" height="3.1"/>
				<rect x="299.8" y="390.2" class="st0" width="33.2" height="3.1"/>
				<rect x="299.8" y="401" class="st0" width="19.5" height="3.1"/>
				<rect x="365.7" y="411.8" class="st0" width="12.6" height="3.1"/>
				<rect x="384" y="411.8" class="st0" width="21.3" height="3.1"/>
				<rect x="379.5" y="390.2" class="st0" width="16" height="3.1"/>
				<rect x="325.8" y="401" class="st0" width="20.8" height="3.1"/>
				<rect x="352.5" y="401" class="st0" width="26.8" height="3.1"/>
				<rect x="299.8" y="379.4" class="st0" width="15.8" height="3.1"/>
				<rect x="321.9" y="379.4" class="st0" width="34.1" height="3.1"/>
				<rect x="299.8" y="422.6" class="st0" width="18.3" height="3.1"/>
				<rect x="325.6" y="422.6" class="st0" width="51.2" height="3.1"/>
				<rect x="383.3" y="422.6" class="st0" width="12.1" height="3.1"/>
				<rect x="299.8" y="432.3" class="st0" width="33.3" height="3.1"/>
				<rect x="340.5" y="432.3" class="st0" width="26.3" height="3.1"/>
				<rect x="299.8" y="508.5" class="st0" width="26.6" height="3.1"/>
			</g>
		</g>
	</g>
	<g>
		<path class="st1" d="M285.8,302.4v260.3h488.9V302.4H285.8z M287.6,541V324.2h129.8V541H287.6z M419.3,324.2h353.5V541H419.3
			V324.2z M772.8,304.3v18H287.6v-18H772.8z M287.6,560.9v-18h485.2v18H287.6z"/>
		<g>
			<path class="st1" d="M777.1,285.6H283.3c-6.8,0-12.4,5.6-12.4,12.4v290.1c0,6.8,5.6,12.4,12.4,12.4h186.4v47.8h-33.9
				c-11.5,0-20.8,9.3-20.8,20.8c0,0.5,0.4,0.9,0.9,0.9h228.6c0.5,0,0.9-0.4,0.9-0.9c0-11.5-9.3-20.8-20.8-20.8h-33.9v-47.8h186.4
				c6.8,0,12.4-5.6,12.4-12.4V298C789.5,291.2,784,285.6,777.1,285.6z M624.6,650.2c10.1,0,18.4,8,18.9,18H416.8
				c0.5-10,8.8-18,18.9-18h34.8h49.7c0.5,0,0.9-0.4,0.9-0.9c0-0.5-0.4-0.9-0.9-0.9h-48.8v-47.7l117.4,8.8v38.9H560
				c-0.5,0-0.9,0.4-0.9,0.9c0,0.5,0.4,0.9,0.9,0.9h29.8H624.6z M787.7,588.1c0,5.8-4.7,10.6-10.5,10.6H589.8H470.6H283.3
				c-5.8,0-10.6-4.7-10.6-10.6V298c0-5.8,4.7-10.6,10.6-10.6h493.9c5.8,0,10.5,4.7,10.5,10.6V588.1z"/>
			<path class="st1" d="M545.1,648.4h-9.9c-0.5,0-0.9,0.4-0.9,0.9c0,0.5,0.4,0.9,0.9,0.9h9.9c0.5,0,0.9-0.4,0.9-0.9
				C546,648.8,545.6,648.4,545.1,648.4z"/>
		</g>
	</g>
</g>
<g>
	<g>
		<rect x="863.8" y="532.7" class="st1" width="1.8" height="1.8"/>
		<rect x="863.8" y="521.8" class="st1" width="1.8" height="1.8"/>
		<rect x="869.3" y="532.7" class="st1" width="1.8" height="1.8"/>
		<rect x="836.4" y="538.2" class="st1" width="1.8" height="1.8"/>
		<rect x="847.3" y="538.2" class="st1" width="1.8" height="1.8"/>
		<rect x="852.8" y="538.2" class="st1" width="1.8" height="1.8"/>
		<rect x="858.3" y="538.2" class="st1" width="1.8" height="1.8"/>
		<rect x="863.8" y="538.2" class="st1" width="1.8" height="1.8"/>
		<rect x="830.9" y="538.2" class="st1" width="1.8" height="1.8"/>
		<rect x="825.4" y="538.2" class="st1" width="1.8" height="1.8"/>
		<rect x="841.8" y="538.2" class="st1" width="1.8" height="1.8"/>
		<rect x="836.4" y="543.7" class="st1" width="1.8" height="1.8"/>
		<rect x="847.3" y="543.7" class="st1" width="1.8" height="1.8"/>
		<rect x="830.9" y="543.7" class="st1" width="1.8" height="1.8"/>
		<rect x="841.8" y="543.7" class="st1" width="1.8" height="1.8"/>
		<rect x="819.9" y="543.7" class="st1" width="1.8" height="1.8"/>
		<rect x="825.4" y="543.7" class="st1" width="1.8" height="1.8"/>
		<rect x="880.3" y="532.7" class="st1" width="1.8" height="1.8"/>
		<rect x="880.3" y="521.8" class="st1" width="1.8" height="1.8"/>
		<rect x="874.8" y="532.7" class="st1" width="1.8" height="1.8"/>
		<rect x="869.3" y="538.2" class="st1" width="1.8" height="1.8"/>
		<rect x="880.3" y="538.2" class="st1" width="1.8" height="1.8"/>
		<rect x="885.8" y="538.2" class="st1" width="1.8" height="1.8"/>
		<rect x="874.8" y="538.2" class="st1" width="1.8" height="1.8"/>
		<rect x="869.3" y="543.7" class="st1" width="1.8" height="1.8"/>
		<rect x="880.3" y="543.7" class="st1" width="1.8" height="1.8"/>
		<rect x="874.8" y="543.7" class="st1" width="1.8" height="1.8"/>
		<rect x="852.8" y="543.7" class="st1" width="1.8" height="1.8"/>
		<rect x="863.8" y="543.7" class="st1" width="1.8" height="1.8"/>
		<rect x="858.3" y="543.7" class="st1" width="1.8" height="1.8"/>
		<rect x="885.8" y="543.7" class="st1" width="1.8" height="1.8"/>
		<rect x="819.9" y="543.7" class="st1" width="1.8" height="1.8"/>
		<rect x="836.4" y="543.7" class="st1" width="1.8" height="1.8"/>
		<rect x="847.3" y="543.7" class="st1" width="1.8" height="1.8"/>
		<rect x="852.8" y="543.7" class="st1" width="1.8" height="1.8"/>
		<rect x="858.3" y="543.7" class="st1" width="1.8" height="1.8"/>
		<rect x="863.8" y="543.7" class="st1" width="1.8" height="1.8"/>
		<rect x="830.9" y="543.7" class="st1" width="1.8" height="1.8"/>
		<rect x="825.4" y="543.7" class="st1" width="1.8" height="1.8"/>
		<rect x="841.8" y="543.7" class="st1" width="1.8" height="1.8"/>
		<rect x="836.4" y="549.2" class="st1" width="1.8" height="1.8"/>
		<rect x="847.3" y="549.2" class="st1" width="1.8" height="1.8"/>
		<rect x="830.9" y="549.2" class="st1" width="1.8" height="1.8"/>
		<rect x="841.8" y="549.2" class="st1" width="1.8" height="1.8"/>
		<rect x="825.4" y="549.2" class="st1" width="1.8" height="1.8"/>
		<rect x="819.9" y="549.2" class="st1" width="1.8" height="1.8"/>
		<rect x="830.9" y="554.7" class="st1" width="1.8" height="1.8"/>
		<rect x="819.9" y="554.7" class="st1" width="1.8" height="1.8"/>
		<rect x="825.4" y="554.7" class="st1" width="1.8" height="1.8"/>
		<rect x="819.9" y="554.7" class="st1" width="1.8" height="1.8"/>
		<rect x="830.9" y="554.7" class="st1" width="1.8" height="1.8"/>
		<rect x="825.4" y="554.7" class="st1" width="1.8" height="1.8"/>
		<rect x="830.9" y="560.2" class="st1" width="1.8" height="1.8"/>
		<rect x="825.4" y="560.2" class="st1" width="1.8" height="1.8"/>
		<rect x="869.3" y="543.7" class="st1" width="1.8" height="1.8"/>
		<rect x="880.3" y="543.7" class="st1" width="1.8" height="1.8"/>
		<rect x="885.8" y="543.7" class="st1" width="1.8" height="1.8"/>
		<rect x="874.8" y="543.7" class="st1" width="1.8" height="1.8"/>
		<rect x="869.3" y="521.8" class="st1" width="1.8" height="1.8"/>
		<rect x="874.8" y="521.8" class="st1" width="1.8" height="1.8"/>
		<rect x="869.3" y="527.3" class="st1" width="1.8" height="1.8"/>
		<rect x="874.8" y="527.3" class="st1" width="1.8" height="1.8"/>
		<rect x="869.3" y="516.3" class="st1" width="1.8" height="1.8"/>
		<rect x="874.8" y="516.3" class="st1" width="1.8" height="1.8"/>
		<rect x="880.3" y="494.3" class="st1" width="1.8" height="1.8"/>
		<rect x="885.8" y="494.3" class="st1" width="1.8" height="1.8"/>
		<rect x="885.8" y="499.8" class="st1" width="1.8" height="1.8"/>
		<rect x="891.3" y="499.8" class="st1" width="1.8" height="1.8"/>
		<rect x="880.3" y="488.8" class="st1" width="1.8" height="1.8"/>
		<rect x="885.8" y="488.8" class="st1" width="1.8" height="1.8"/>
		<rect x="880.3" y="483.3" class="st1" width="1.8" height="1.8"/>
		<rect x="885.8" y="483.3" class="st1" width="1.8" height="1.8"/>
		<rect x="869.3" y="532.7" class="st1" width="1.8" height="1.8"/>
		<rect x="874.8" y="532.7" class="st1" width="1.8" height="1.8"/>
		<rect x="869.3" y="532.7" class="st1" width="1.8" height="1.8"/>
		<rect x="874.8" y="532.7" class="st1" width="1.8" height="1.8"/>
		<rect x="869.3" y="549.2" class="st1" width="1.8" height="1.8"/>
		<rect x="880.3" y="549.2" class="st1" width="1.8" height="1.8"/>
		<rect x="874.8" y="549.2" class="st1" width="1.8" height="1.8"/>
		<rect x="852.8" y="549.2" class="st1" width="1.8" height="1.8"/>
		<rect x="863.8" y="549.2" class="st1" width="1.8" height="1.8"/>
		<rect x="858.3" y="549.2" class="st1" width="1.8" height="1.8"/>
		<rect x="863.8" y="472.3" class="st1" width="1.8" height="1.8"/>
		<rect x="869.3" y="472.3" class="st1" width="1.8" height="1.8"/>
		<rect x="874.8" y="472.3" class="st1" width="1.8" height="1.8"/>
		<rect x="880.3" y="472.3" class="st1" width="1.8" height="1.8"/>
		<rect x="863.8" y="477.8" class="st1" width="1.8" height="1.8"/>
		<rect x="858.3" y="477.8" class="st1" width="1.8" height="1.8"/>
		<rect x="885.8" y="472.3" class="st1" width="1.8" height="1.8"/>
		<rect x="891.3" y="472.3" class="st1" width="1.8" height="1.8"/>
		<rect x="885.8" y="477.8" class="st1" width="1.8" height="1.8"/>
		<rect x="896.8" y="477.8" class="st1" width="1.8" height="1.8"/>
		<rect x="891.3" y="477.8" class="st1" width="1.8" height="1.8"/>
		<rect x="869.3" y="477.8" class="st1" width="1.8" height="1.8"/>
		<rect x="880.3" y="477.8" class="st1" width="1.8" height="1.8"/>
		<rect x="874.8" y="477.8" class="st1" width="1.8" height="1.8"/>
		<rect x="863.8" y="477.8" class="st1" width="1.8" height="1.8"/>
		<rect x="869.3" y="477.8" class="st1" width="1.8" height="1.8"/>
		<rect x="874.8" y="477.8" class="st1" width="1.8" height="1.8"/>
		<rect x="880.3" y="477.8" class="st1" width="1.8" height="1.8"/>
		<rect x="858.3" y="477.8" class="st1" width="1.8" height="1.8"/>
		<rect x="863.8" y="483.3" class="st1" width="1.8" height="1.8"/>
		<rect x="885.8" y="477.8" class="st1" width="1.8" height="1.8"/>
		<rect x="896.8" y="477.8" class="st1" width="1.8" height="1.8"/>
		<rect x="891.3" y="477.8" class="st1" width="1.8" height="1.8"/>
		<rect x="891.3" y="483.3" class="st1" width="1.8" height="1.8"/>
		<rect x="869.3" y="483.3" class="st1" width="1.8" height="1.8"/>
		<rect x="874.8" y="483.3" class="st1" width="1.8" height="1.8"/>
		<rect x="869.3" y="499.8" class="st1" width="1.8" height="1.8"/>
		<rect x="874.8" y="499.8" class="st1" width="1.8" height="1.8"/>
		<rect x="863.8" y="505.3" class="st1" width="1.8" height="1.8"/>
		<rect x="869.3" y="505.3" class="st1" width="1.8" height="1.8"/>
		<rect x="896.8" y="499.8" class="st1" width="1.8" height="1.8"/>
		<rect x="880.3" y="499.8" class="st1" width="1.8" height="1.8"/>
		<rect x="874.8" y="505.3" class="st1" width="1.8" height="1.8"/>
		<rect x="885.8" y="505.3" class="st1" width="1.8" height="1.8"/>
		<rect x="891.3" y="505.3" class="st1" width="1.8" height="1.8"/>
		<rect x="896.8" y="505.3" class="st1" width="1.8" height="1.8"/>
		<rect x="902.2" y="505.3" class="st1" width="1.8" height="1.8"/>
		<rect x="880.3" y="505.3" class="st1" width="1.8" height="1.8"/>
		<rect x="874.8" y="510.8" class="st1" width="1.8" height="1.8"/>
		<rect x="885.8" y="510.8" class="st1" width="1.8" height="1.8"/>
		<rect x="880.3" y="510.8" class="st1" width="1.8" height="1.8"/>
		<rect x="869.3" y="510.8" class="st1" width="1.8" height="1.8"/>
		<rect x="863.8" y="510.8" class="st1" width="1.8" height="1.8"/>
		<rect x="891.3" y="510.8" class="st1" width="1.8" height="1.8"/>
		<rect x="896.8" y="510.8" class="st1" width="1.8" height="1.8"/>
		<rect x="902.2" y="510.8" class="st1" width="1.8" height="1.8"/>
		<rect x="863.8" y="510.8" class="st1" width="1.8" height="1.8"/>
		<rect x="869.3" y="510.8" class="st1" width="1.8" height="1.8"/>
		<rect x="874.8" y="510.8" class="st1" width="1.8" height="1.8"/>
		<rect x="885.8" y="510.8" class="st1" width="1.8" height="1.8"/>
		<rect x="891.3" y="510.8" class="st1" width="1.8" height="1.8"/>
		<rect x="896.8" y="510.8" class="st1" width="1.8" height="1.8"/>
		<rect x="902.2" y="510.8" class="st1" width="1.8" height="1.8"/>
		<rect x="880.3" y="510.8" class="st1" width="1.8" height="1.8"/>
		<rect x="874.8" y="499.8" class="st1" width="1.8" height="1.8"/>
		<rect x="880.3" y="499.8" class="st1" width="1.8" height="1.8"/>
		<rect x="874.8" y="499.8" class="st1" width="1.8" height="1.8"/>
		<rect x="880.3" y="499.8" class="st1" width="1.8" height="1.8"/>
		<rect x="885.8" y="516.3" class="st1" width="1.8" height="1.8"/>
		<rect x="880.3" y="516.3" class="st1" width="1.8" height="1.8"/>
		<rect x="863.8" y="516.3" class="st1" width="1.8" height="1.8"/>
		<rect x="858.3" y="516.3" class="st1" width="1.8" height="1.8"/>
		<rect x="852.8" y="505.3" class="st1" width="1.8" height="1.8"/>
		<rect x="858.3" y="505.3" class="st1" width="1.8" height="1.8"/>
		<rect x="863.8" y="499.8" class="st1" width="1.8" height="1.8"/>
		<rect x="858.3" y="499.8" class="st1" width="1.8" height="1.8"/>
		<rect x="863.8" y="510.8" class="st1" width="1.8" height="1.8"/>
		<rect x="858.3" y="510.8" class="st1" width="1.8" height="1.8"/>
		<rect x="852.8" y="510.8" class="st1" width="1.8" height="1.8"/>
		<rect x="852.8" y="510.8" class="st1" width="1.8" height="1.8"/>
		<rect x="858.3" y="510.8" class="st1" width="1.8" height="1.8"/>
		<rect x="852.8" y="516.3" class="st1" width="1.8" height="1.8"/>
		<rect x="847.3" y="505.3" class="st1" width="1.8" height="1.8"/>
		<rect x="852.8" y="499.8" class="st1" width="1.8" height="1.8"/>
		<rect x="852.8" y="510.8" class="st1" width="1.8" height="1.8"/>
		<rect x="847.3" y="510.8" class="st1" width="1.8" height="1.8"/>
		<rect x="847.3" y="510.8" class="st1" width="1.8" height="1.8"/>
		<rect x="891.3" y="516.3" class="st1" width="1.8" height="1.8"/>
		<rect x="896.8" y="516.3" class="st1" width="1.8" height="1.8"/>
		<rect x="902.2" y="499.8" class="st1" width="1.8" height="1.8"/>
		<rect x="907.7" y="499.8" class="st1" width="1.8" height="1.8"/>
		<rect x="913.2" y="499.8" class="st1" width="1.8" height="1.8"/>
		<rect x="896.8" y="499.8" class="st1" width="1.8" height="1.8"/>
		<rect x="902.2" y="505.3" class="st1" width="1.8" height="1.8"/>
		<rect x="907.7" y="505.3" class="st1" width="1.8" height="1.8"/>
		<rect x="913.2" y="505.3" class="st1" width="1.8" height="1.8"/>
		<rect x="918.7" y="505.3" class="st1" width="1.8" height="1.8"/>
		<rect x="902.2" y="510.8" class="st1" width="1.8" height="1.8"/>
		<rect x="896.8" y="510.8" class="st1" width="1.8" height="1.8"/>
		<rect x="907.7" y="510.8" class="st1" width="1.8" height="1.8"/>
		<rect x="913.2" y="510.8" class="st1" width="1.8" height="1.8"/>
		<rect x="918.7" y="510.8" class="st1" width="1.8" height="1.8"/>
		<rect x="902.2" y="510.8" class="st1" width="1.8" height="1.8"/>
		<rect x="907.7" y="510.8" class="st1" width="1.8" height="1.8"/>
		<rect x="913.2" y="510.8" class="st1" width="1.8" height="1.8"/>
		<rect x="918.7" y="510.8" class="st1" width="1.8" height="1.8"/>
		<rect x="896.8" y="499.8" class="st1" width="1.8" height="1.8"/>
		<rect x="902.2" y="516.3" class="st1" width="1.8" height="1.8"/>
		<rect x="907.7" y="516.3" class="st1" width="1.8" height="1.8"/>
		<rect x="913.2" y="516.3" class="st1" width="1.8" height="1.8"/>
	</g>
	<path class="st0" d="M879.5,669.3h-71.1c-7.8,0-14.1-6.3-14.1-14.1v-83.6c0-3.7,3-6.7,6.7-6.7h86c3.7,0,6.7,3,6.7,6.7v83.6
		C893.6,662.9,887.3,669.3,879.5,669.3z"/>
	<path class="st0" d="M903.5,579.8h-9.9v14.9h9.9c11,0,19.9,8.9,19.9,19.9c0,11-8.9,19.9-19.9,19.9h-9.9v14.9h9.9
		c19.2,0,34.8-15.6,34.8-34.8C938.3,595.4,922.7,579.8,903.5,579.8z"/>
	<g>
		<path class="st3" d="M932.1,615.5c-0.5,0-0.9-0.4-0.9-0.9c0-9.3-4.7-18-12.5-23.1c-0.4-0.3-0.5-0.9-0.3-1.3
			c0.3-0.4,0.9-0.5,1.3-0.3c8.3,5.5,13.3,14.7,13.3,24.7C933,615.1,932.6,615.5,932.1,615.5z"/>
		<path class="st3" d="M913.5,588.7c-0.1,0-0.2,0-0.3-0.1c-3.1-1.1-6.3-1.7-9.6-1.7c-0.5,0-0.9-0.4-0.9-0.9c0-0.5,0.4-0.9,0.9-0.9
			c3.5,0,7,0.6,10.3,1.8c0.5,0.2,0.7,0.7,0.5,1.2C914.2,588.5,913.8,588.7,913.5,588.7z"/>
	</g>
	<g>
		<path class="st3" d="M838.1,634.5h-23.3c-1.8,0-3.3-1.5-3.3-3.3v-29.6c0-1.2,0.6-2.3,1.6-3l13.3-8.9l13.3,8.9c1,0.7,1.6,1.8,1.6,3
			v29.6C841.4,633,839.9,634.5,838.1,634.5z"/>
		<circle class="st0" cx="826.5" cy="614.6" r="9.9"/>
	</g>
	<g>
		<rect x="844.2" y="604.5" class="st1" width="1.8" height="1.8"/>
		<rect x="844.2" y="610" class="st1" width="1.8" height="1.8"/>
		<rect x="844.2" y="615.4" class="st1" width="1.8" height="1.8"/>
		<rect x="844.2" y="620.9" class="st1" width="1.8" height="1.8"/>
		<rect x="844.2" y="626.4" class="st1" width="1.8" height="1.8"/>
		<rect x="811.3" y="637.4" class="st1" width="1.8" height="1.8"/>
		<rect x="822.3" y="637.4" class="st1" width="1.8" height="1.8"/>
		<rect x="816.8" y="637.4" class="st1" width="1.8" height="1.8"/>
		<rect x="844.2" y="631.9" class="st1" width="1.8" height="1.8"/>
		<rect x="844.2" y="637.4" class="st1" width="1.8" height="1.8"/>
		<rect x="833.3" y="637.4" class="st1" width="1.8" height="1.8"/>
		<rect x="827.8" y="637.4" class="st1" width="1.8" height="1.8"/>
		<rect x="838.7" y="637.4" class="st1" width="1.8" height="1.8"/>
	</g>
	<g>
		<rect x="888.6" y="571.3" class="st1" width="1.8" height="1.8"/>
		<rect x="888.6" y="576.7" class="st1" width="1.8" height="1.8"/>
		<rect x="888.6" y="582.2" class="st1" width="1.8" height="1.8"/>
		<rect x="888.6" y="587.7" class="st1" width="1.8" height="1.8"/>
		<rect x="883.1" y="593.2" class="st1" width="1.8" height="1.8"/>
		<rect x="888.6" y="593.2" class="st1" width="1.8" height="1.8"/>
		<rect x="888.6" y="598.7" class="st1" width="1.8" height="1.8"/>
		<rect x="883.1" y="598.7" class="st1" width="1.8" height="1.8"/>
		<rect x="883.1" y="604.2" class="st1" width="1.8" height="1.8"/>
		<rect x="888.6" y="604.2" class="st1" width="1.8" height="1.8"/>
		<rect x="888.6" y="609.7" class="st1" width="1.8" height="1.8"/>
		<rect x="883.1" y="609.7" class="st1" width="1.8" height="1.8"/>
		<rect x="883.1" y="615.2" class="st1" width="1.8" height="1.8"/>
		<rect x="888.6" y="615.2" class="st1" width="1.8" height="1.8"/>
		<rect x="888.6" y="620.7" class="st1" width="1.8" height="1.8"/>
		<rect x="883.1" y="620.7" class="st1" width="1.8" height="1.8"/>
		<rect x="883.1" y="626.2" class="st1" width="1.8" height="1.8"/>
		<rect x="888.6" y="626.2" class="st1" width="1.8" height="1.8"/>
		<rect x="888.6" y="631.7" class="st1" width="1.8" height="1.8"/>
		<rect x="883.1" y="631.7" class="st1" width="1.8" height="1.8"/>
		<rect x="883.1" y="631.7" class="st1" width="1.8" height="1.8"/>
		<rect x="883.1" y="637.2" class="st1" width="1.8" height="1.8"/>
		<rect x="888.6" y="637.2" class="st1" width="1.8" height="1.8"/>
		<rect x="888.6" y="642.6" class="st1" width="1.8" height="1.8"/>
		<rect x="883.1" y="642.6" class="st1" width="1.8" height="1.8"/>
		<rect x="877.6" y="648.1" class="st1" width="1.8" height="1.8"/>
		<rect x="883.1" y="648.1" class="st1" width="1.8" height="1.8"/>
		<rect x="888.6" y="648.1" class="st1" width="1.8" height="1.8"/>
		<rect x="877.6" y="653.6" class="st1" width="1.8" height="1.8"/>
		<rect x="888.6" y="653.6" class="st1" width="1.8" height="1.8"/>
		<rect x="883.1" y="653.6" class="st1" width="1.8" height="1.8"/>
		<rect x="872.1" y="653.6" class="st1" width="1.8" height="1.8"/>
		<rect x="877.6" y="653.6" class="st1" width="1.8" height="1.8"/>
		<rect x="872.1" y="653.6" class="st1" width="1.8" height="1.8"/>
		<rect x="828.2" y="659.1" class="st1" width="1.8" height="1.8"/>
		<rect x="839.2" y="659.1" class="st1" width="1.8" height="1.8"/>
		<rect x="844.6" y="659.1" class="st1" width="1.8" height="1.8"/>
		<rect x="850.1" y="659.1" class="st1" width="1.8" height="1.8"/>
		<rect x="822.7" y="659.1" class="st1" width="1.8" height="1.8"/>
		<rect x="833.7" y="659.1" class="st1" width="1.8" height="1.8"/>
		<rect x="806.2" y="664.6" class="st1" width="1.8" height="1.8"/>
		<rect x="817.2" y="664.6" class="st1" width="1.8" height="1.8"/>
		<rect x="828.2" y="664.6" class="st1" width="1.8" height="1.8"/>
		<rect x="839.2" y="664.6" class="st1" width="1.8" height="1.8"/>
		<rect x="811.7" y="664.6" class="st1" width="1.8" height="1.8"/>
		<rect x="822.7" y="664.6" class="st1" width="1.8" height="1.8"/>
		<rect x="833.7" y="664.6" class="st1" width="1.8" height="1.8"/>
		<rect x="866.6" y="659.1" class="st1" width="1.8" height="1.8"/>
		<rect x="877.6" y="659.1" class="st1" width="1.8" height="1.8"/>
		<rect x="883.1" y="659.1" class="st1" width="1.8" height="1.8"/>
		<rect x="888.6" y="659.1" class="st1" width="1.8" height="1.8"/>
		<rect x="861.1" y="659.1" class="st1" width="1.8" height="1.8"/>
		<rect x="855.6" y="659.1" class="st1" width="1.8" height="1.8"/>
		<rect x="872.1" y="659.1" class="st1" width="1.8" height="1.8"/>
		<rect x="866.6" y="664.6" class="st1" width="1.8" height="1.8"/>
		<rect x="877.6" y="664.6" class="st1" width="1.8" height="1.8"/>
		<rect x="883.1" y="664.6" class="st1" width="1.8" height="1.8"/>
		<rect x="861.1" y="664.6" class="st1" width="1.8" height="1.8"/>
		<rect x="872.1" y="664.6" class="st1" width="1.8" height="1.8"/>
		<rect x="850.1" y="664.6" class="st1" width="1.8" height="1.8"/>
		<rect x="844.6" y="664.6" class="st1" width="1.8" height="1.8"/>
		<rect x="855.6" y="664.6" class="st1" width="1.8" height="1.8"/>
	</g>
	<path class="st1" d="M903.5,578.9h-9v-7.3c0-4.2-3.4-7.6-7.6-7.6h-86c-4.2,0-7.6,3.4-7.6,7.6v83.6c0,8.3,6.8,15.1,15.1,15.1h71.1
		c8.3,0,15.1-6.8,15.1-15.1v-4.8h9c19.7,0,35.7-16,35.7-35.7S923.2,578.9,903.5,578.9z M922.5,614.6c0,10.4-8.5,18.9-18.9,18.9h-9
		v-37.9h9C914,595.6,922.5,604.1,922.5,614.6z M826.5,590.9l12.8,8.5c0.8,0.5,1.2,1.3,1.2,2.2v29.6c0,1.3-1,2.3-2.3,2.3h-23.3
		c-1.3,0-2.3-1-2.3-2.3v-29.6c0-0.9,0.4-1.7,1.2-2.2L826.5,590.9z M892.7,655.1c0,7.3-5.9,13.2-13.2,13.2h-71.1
		c-7.3,0-13.2-5.9-13.2-13.2v-83.6c0-3.2,2.6-5.7,5.7-5.7h24.7v23.4l-12.9,8.6c-1.3,0.8-2,2.3-2,3.8v29.6c0,2.3,1.9,4.2,4.2,4.2
		h23.3c2.3,0,4.2-1.9,4.2-4.2v-29.6c0-1.5-0.8-2.9-2-3.8l-12.9-8.6v-23.4h59.5c3.2,0,5.7,2.6,5.7,5.7v7.3v16.8v37.9v16.8V655.1z
		 M904.3,648.4c-3.4-1.6-5.7-5-5.7-9c0-1.7-0.8-3.1-2.1-4h7.1c11.5,0,20.8-9.3,20.8-20.8c0-11.2-8.9-20.3-19.9-20.8
		c-3.4-1.6-5.8-5-5.8-9.1c0-1.7-0.8-3.1-2.1-4h7.1c18.7,0,33.9,15.2,33.9,33.9C937.4,633,922.6,648,904.3,648.4z"/>
	<g>
		<path class="st3" d="M819,570.8h-14.9c-0.5,0-0.9-0.4-0.9-0.9s0.4-0.9,0.9-0.9H819c0.5,0,0.9,0.4,0.9,0.9S819.6,570.8,819,570.8z"
			/>
		<path class="st3" d="M868.7,570.8H834c-0.5,0-0.9-0.4-0.9-0.9s0.4-0.9,0.9-0.9h34.8c0.5,0,0.9,0.4,0.9,0.9
			S869.3,570.8,868.7,570.8z"/>
	</g>
</g>
<g>
	<g>
		<rect x="426.1" y="186.5" class="st1" width="1.8" height="1.8"/>
		<rect x="431.6" y="186.5" class="st1" width="1.8" height="1.8"/>
		<rect x="415.1" y="186.5" class="st1" width="1.8" height="1.8"/>
		<rect x="420.6" y="186.5" class="st1" width="1.8" height="1.8"/>
		<rect x="404.1" y="186.5" class="st1" width="1.8" height="1.8"/>
		<rect x="409.6" y="186.5" class="st1" width="1.8" height="1.8"/>
		<rect x="398.7" y="186.5" class="st1" width="1.8" height="1.8"/>
		<rect x="437.1" y="186.5" class="st1" width="1.8" height="1.8"/>
		<rect x="442.6" y="186.5" class="st1" width="1.8" height="1.8"/>
		<rect x="448.1" y="186.5" class="st1" width="1.8" height="1.8"/>
		<rect x="415.1" y="192" class="st1" width="1.8" height="1.8"/>
		<rect x="426.1" y="192" class="st1" width="1.8" height="1.8"/>
		<rect x="431.6" y="192" class="st1" width="1.8" height="1.8"/>
		<rect x="437.1" y="192" class="st1" width="1.8" height="1.8"/>
		<rect x="442.6" y="192" class="st1" width="1.8" height="1.8"/>
		<rect x="420.6" y="192" class="st1" width="1.8" height="1.8"/>
		<rect x="459.1" y="186.5" class="st1" width="1.8" height="1.8"/>
		<rect x="464.5" y="186.5" class="st1" width="1.8" height="1.8"/>
		<rect x="470" y="186.5" class="st1" width="1.8" height="1.8"/>
		<rect x="470" y="181" class="st1" width="1.8" height="1.8"/>
		<rect x="475.5" y="186.5" class="st1" width="1.8" height="1.8"/>
		<rect x="481" y="186.5" class="st1" width="1.8" height="1.8"/>
		<rect x="453.6" y="186.5" class="st1" width="1.8" height="1.8"/>
		<rect x="448.1" y="192" class="st1" width="1.8" height="1.8"/>
		<rect x="459.1" y="192" class="st1" width="1.8" height="1.8"/>
		<rect x="464.5" y="192" class="st1" width="1.8" height="1.8"/>
		<rect x="470" y="192" class="st1" width="1.8" height="1.8"/>
		<rect x="475.5" y="192" class="st1" width="1.8" height="1.8"/>
		<rect x="453.6" y="192" class="st1" width="1.8" height="1.8"/>
		<rect x="448.1" y="197.5" class="st1" width="1.8" height="1.8"/>
		<rect x="459.1" y="197.5" class="st1" width="1.8" height="1.8"/>
		<rect x="453.6" y="197.5" class="st1" width="1.8" height="1.8"/>
		<rect x="431.6" y="197.5" class="st1" width="1.8" height="1.8"/>
		<rect x="442.6" y="197.5" class="st1" width="1.8" height="1.8"/>
		<rect x="437.1" y="197.5" class="st1" width="1.8" height="1.8"/>
		<rect x="486.5" y="186.5" class="st1" width="1.8" height="1.8"/>
		<rect x="475.5" y="181" class="st1" width="1.8" height="1.8"/>
		<rect x="503" y="175.5" class="st1" width="1.8" height="1.8"/>
		<rect x="497.5" y="175.5" class="st1" width="1.8" height="1.8"/>
		<rect x="497.5" y="181" class="st1" width="1.8" height="1.8"/>
		<rect x="486.5" y="175.5" class="st1" width="1.8" height="1.8"/>
		<rect x="492" y="175.5" class="st1" width="1.8" height="1.8"/>
		<rect x="481" y="181" class="st1" width="1.8" height="1.8"/>
		<rect x="486.5" y="181" class="st1" width="1.8" height="1.8"/>
		<rect x="492" y="181" class="st1" width="1.8" height="1.8"/>
		<rect x="508.5" y="164.5" class="st1" width="1.8" height="1.8"/>
		<rect x="503" y="164.5" class="st1" width="1.8" height="1.8"/>
		<rect x="497.5" y="164.5" class="st1" width="1.8" height="1.8"/>
		<rect x="508.5" y="170" class="st1" width="1.8" height="1.8"/>
		<rect x="492" y="170" class="st1" width="1.8" height="1.8"/>
		<rect x="497.5" y="170" class="st1" width="1.8" height="1.8"/>
		<rect x="503" y="170" class="st1" width="1.8" height="1.8"/>
		<rect x="519.5" y="153.5" class="st1" width="1.8" height="1.8"/>
		<rect x="519.5" y="159" class="st1" width="1.8" height="1.8"/>
		<rect x="514" y="153.5" class="st1" width="1.8" height="1.8"/>
		<rect x="508.5" y="153.5" class="st1" width="1.8" height="1.8"/>
		<rect x="514" y="159" class="st1" width="1.8" height="1.8"/>
		<rect x="514" y="164.5" class="st1" width="1.8" height="1.8"/>
		<rect x="508.5" y="159" class="st1" width="1.8" height="1.8"/>
		<rect x="503" y="159" class="st1" width="1.8" height="1.8"/>
		<rect x="519.5" y="142.6" class="st1" width="1.8" height="1.8"/>
		<rect x="514" y="142.6" class="st1" width="1.8" height="1.8"/>
		<rect x="525" y="142.6" class="st1" width="1.8" height="1.8"/>
		<rect x="525" y="148" class="st1" width="1.8" height="1.8"/>
		<rect x="519.5" y="148" class="st1" width="1.8" height="1.8"/>
		<rect x="514" y="148" class="st1" width="1.8" height="1.8"/>
		<rect x="508.5" y="148" class="st1" width="1.8" height="1.8"/>
		<rect x="519.5" y="131.6" class="st1" width="1.8" height="1.8"/>
		<rect x="525" y="131.6" class="st1" width="1.8" height="1.8"/>
		<rect x="530.4" y="131.6" class="st1" width="1.8" height="1.8"/>
		<rect x="519.5" y="137.1" class="st1" width="1.8" height="1.8"/>
		<rect x="514" y="137.1" class="st1" width="1.8" height="1.8"/>
		<rect x="525" y="137.1" class="st1" width="1.8" height="1.8"/>
		<rect x="519.5" y="120.6" class="st1" width="1.8" height="1.8"/>
		<rect x="525" y="120.6" class="st1" width="1.8" height="1.8"/>
		<rect x="530.4" y="120.6" class="st1" width="1.8" height="1.8"/>
		<rect x="519.5" y="126.1" class="st1" width="1.8" height="1.8"/>
		<rect x="525" y="126.1" class="st1" width="1.8" height="1.8"/>
		<rect x="530.4" y="126.1" class="st1" width="1.8" height="1.8"/>
		<rect x="525" y="109.6" class="st1" width="1.8" height="1.8"/>
		<rect x="530.4" y="109.6" class="st1" width="1.8" height="1.8"/>
		<rect x="525" y="115.1" class="st1" width="1.8" height="1.8"/>
		<rect x="530.4" y="115.1" class="st1" width="1.8" height="1.8"/>
		<rect x="525" y="98.6" class="st1" width="1.8" height="1.8"/>
		<rect x="530.4" y="98.6" class="st1" width="1.8" height="1.8"/>
		<rect x="525" y="104.1" class="st1" width="1.8" height="1.8"/>
		<rect x="530.4" y="104.1" class="st1" width="1.8" height="1.8"/>
		<rect x="519.5" y="87.6" class="st1" width="1.8" height="1.8"/>
		<rect x="525" y="87.6" class="st1" width="1.8" height="1.8"/>
		<rect x="530.4" y="87.6" class="st1" width="1.8" height="1.8"/>
		<rect x="525" y="93.1" class="st1" width="1.8" height="1.8"/>
		<rect x="530.4" y="93.1" class="st1" width="1.8" height="1.8"/>
		<rect x="519.5" y="76.7" class="st1" width="1.8" height="1.8"/>
		<rect x="525" y="76.7" class="st1" width="1.8" height="1.8"/>
		<rect x="519.5" y="82.2" class="st1" width="1.8" height="1.8"/>
		<rect x="519.5" y="71.2" class="st1" width="1.8" height="1.8"/>
		<rect x="519.5" y="60.2" class="st1" width="1.8" height="1.8"/>
		<rect x="519.5" y="65.7" class="st1" width="1.8" height="1.8"/>
		<rect x="525" y="82.2" class="st1" width="1.8" height="1.8"/>
		<rect x="525" y="65.7" class="st1" width="1.8" height="1.8"/>
		<rect x="525" y="71.2" class="st1" width="1.8" height="1.8"/>
	</g>
	<g>
		
			<ellipse transform="matrix(0.7071 -0.7071 0.7071 0.7071 58.7265 332.4871)" class="st0" cx="430.7" cy="95.4" rx="94.4" ry="94.4"/>
		
			<ellipse transform="matrix(0.7071 -0.7071 0.7071 0.7071 58.7265 332.4871)" class="st3" cx="430.7" cy="95.4" rx="79.5" ry="79.5"/>
		<g>
			<path class="st1" d="M435.7,25.8c0,2.7-2.2,5-5,5c-2.7,0-5-2.2-5-5c0-2.7,2.2-5,5-5C433.5,20.8,435.7,23,435.7,25.8z"/>
			<path class="st1" d="M435.7,164.9c0,2.7-2.2,5-5,5c-2.7,0-5-2.2-5-5c0-2.7,2.2-5,5-5C433.5,160,435.7,162.2,435.7,164.9z"/>
			<path class="st1" d="M361.1,90.4c2.7,0,5,2.2,5,5c0,2.7-2.2,5-5,5c-2.7,0-5-2.2-5-5C356.2,92.6,358.4,90.4,361.1,90.4z"/>
			<path class="st1" d="M500.3,90.4c2.7,0,5,2.2,5,5c0,2.7-2.2,5-5,5c-2.7,0-5-2.2-5-5C495.3,92.6,497.5,90.4,500.3,90.4z"/>
			<path class="st1" d="M400.2,32.6c1.4,2.4,0.6,5.4-1.8,6.8c-2.4,1.4-5.4,0.6-6.8-1.8c-1.4-2.4-0.6-5.4,1.8-6.8
				C395.8,29.4,398.9,30.2,400.2,32.6z"/>
			<path class="st1" d="M469.8,153.1c1.4,2.4,0.6,5.4-1.8,6.8c-2.4,1.4-5.4,0.6-6.8-1.8c-1.4-2.4-0.6-5.4,1.8-6.8
				C465.4,149.9,468.4,150.7,469.8,153.1z"/>
			<path class="st1" d="M368,125.8c2.4-1.4,5.4-0.6,6.8,1.8c1.4,2.4,0.6,5.4-1.8,6.8c-2.4,1.4-5.4,0.6-6.8-1.8
				C364.8,130.2,365.6,127.2,368,125.8z"/>
			<path class="st1" d="M488.5,56.3c2.4-1.4,5.4-0.6,6.8,1.8c1.4,2.4,0.6,5.4-1.8,6.8c-2.4,1.4-5.4,0.6-6.8-1.8
				C485.3,60.7,486.1,57.6,488.5,56.3z"/>
			<path class="st1" d="M372.9,56.3c2.4,1.4,3.2,4.4,1.8,6.8c-1.4,2.4-4.4,3.2-6.8,1.8c-2.4-1.4-3.2-4.4-1.8-6.8
				C367.5,55.7,370.6,54.9,372.9,56.3z"/>
			<path class="st1" d="M493.4,125.8c2.4,1.4,3.2,4.4,1.8,6.8c-1.4,2.4-4.4,3.2-6.8,1.8c-2.4-1.4-3.2-4.4-1.8-6.8
				C488,125.3,491.1,124.5,493.4,125.8z"/>
			<path class="st1" d="M391.6,153.1c1.4-2.4,4.4-3.2,6.8-1.8c2.4,1.4,3.2,4.4,1.8,6.8c-1.4,2.4-4.4,3.2-6.8,1.8
				C391.1,158.5,390.2,155.5,391.6,153.1z"/>
			<path class="st1" d="M461.2,32.6c1.4-2.4,4.4-3.2,6.8-1.8c2.4,1.4,3.2,4.4,1.8,6.8c-1.4,2.4-4.4,3.2-6.8,1.8
				C460.6,38,459.8,35,461.2,32.6z"/>
		</g>
	</g>
	<g>
		<path class="st3" d="M395.9,13.8c-0.4,0-0.7-0.2-0.9-0.6c-0.2-0.5,0-1,0.5-1.2c11.1-4.7,23-7.1,35.1-7.1c0.5,0,0.9,0.4,0.9,0.9
			c0,0.5-0.4,0.9-0.9,0.9c-11.9,0-23.5,2.3-34.4,6.9C396.2,13.8,396,13.8,395.9,13.8z"/>
		<path class="st3" d="M341.3,96.3c-0.5,0-0.9-0.4-0.9-0.9c0-27.4,12.2-53,33.6-70.3c0.4-0.3,1-0.3,1.3,0.1c0.3,0.4,0.3,1-0.1,1.3
			c-20.9,16.9-32.9,42-32.9,68.9C342.2,95.9,341.8,96.3,341.3,96.3z"/>
	</g>
	<g>
		<path class="st1" d="M430.7,190.7c-52.6,0-95.4-42.8-95.4-95.4S378.1,0,430.7,0s95.4,42.8,95.4,95.4S483.3,190.7,430.7,190.7z
			 M430.7,1.9c-51.6,0-93.5,41.9-93.5,93.5s41.9,93.5,93.5,93.5c51.6,0,93.5-41.9,93.5-93.5S482.3,1.9,430.7,1.9z"/>
		<path class="st1" d="M430.7,175.8c-44.4,0-80.4-36.1-80.4-80.4s36.1-80.4,80.4-80.4c44.4,0,80.4,36.1,80.4,80.4
			S475.1,175.8,430.7,175.8z M430.7,16.8c-43.3,0-78.6,35.3-78.6,78.6s35.3,78.6,78.6,78.6c43.3,0,78.6-35.3,78.6-78.6
			S474,16.8,430.7,16.8z"/>
	</g>
	<g>
		<rect x="437.1" y="100" class="st1" width="1.8" height="1.8"/>
		<rect x="442.6" y="100" class="st1" width="1.8" height="1.8"/>
		<rect x="448.1" y="100" class="st1" width="1.8" height="1.8"/>
		<rect x="426.1" y="105.5" class="st1" width="1.8" height="1.8"/>
		<rect x="431.6" y="105.5" class="st1" width="1.8" height="1.8"/>
		<rect x="459.1" y="100" class="st1" width="1.8" height="1.8"/>
		<rect x="464.5" y="100" class="st1" width="1.8" height="1.8"/>
		<rect x="453.6" y="100" class="st1" width="1.8" height="1.8"/>
	</g>
	<g>
		<path class="st0" d="M433.2,90.4h-5V43.2c0-1.4,1.1-2.5,2.5-2.5h0c1.4,0,2.5,1.1,2.5,2.5V90.4z"/>
		<path class="st0" d="M468,97.8h-32.3v-5H468c1.4,0,2.5,1.1,2.5,2.5l0,0C470.5,96.7,469.4,97.8,468,97.8z"/>
		<path class="st1" d="M468,91.9h-29.6c-0.8-1.9-2.4-3.4-4.2-4.2V43.2c0-1.9-1.5-3.4-3.4-3.4c-1.9,0-3.4,1.5-3.4,3.4v44.5
			c-2.9,1.3-5,4.2-5,7.7c0,4.6,3.8,8.4,8.4,8.4c3.4,0,6.3-2,7.7-5H468c1.9,0,3.4-1.5,3.4-3.4S469.9,91.9,468,91.9z M429.2,43.2
			c0-0.9,0.7-1.6,1.6-1.6c0.9,0,1.6,0.7,1.6,1.6v43.9c-0.5-0.1-1-0.2-1.6-0.2c-0.5,0-1,0.1-1.6,0.2V43.2z M468,96.9h-29
			c0.1-0.5,0.2-1,0.2-1.6s-0.1-1-0.2-1.6h29c0.9,0,1.6,0.7,1.6,1.6S468.8,96.9,468,96.9z"/>
		<path class="st0" d="M430.7,101.3c-0.5,0-0.9-0.4-0.9-0.9c0-0.5,0.4-0.9,0.9-0.9c2.2,0,4-1.8,4-4c0-0.5,0.4-0.9,0.9-0.9
			c0.5,0,0.9,0.4,0.9,0.9C436.6,98.6,434,101.3,430.7,101.3z"/>
	</g>
</g>
<g>
	<g>
		<path class="st1" d="M1009.8,670.2h-979c-0.5,0-0.9-0.4-0.9-0.9c0-0.5,0.4-0.9,0.9-0.9h979c0.5,0,0.9,0.4,0.9,0.9
			C1010.7,669.8,1010.3,670.2,1009.8,670.2z"/>
	</g>
	<g>
		<path class="st1" d="M15.8,670.2H0.9c-0.5,0-0.9-0.4-0.9-0.9c0-0.5,0.4-0.9,0.9-0.9h14.9c0.5,0,0.9,0.4,0.9,0.9
			C16.8,669.8,16.4,670.2,15.8,670.2z"/>
	</g>
	<g>
		<path class="st1" d="M1059.5,670.2h-34.8c-0.5,0-0.9-0.4-0.9-0.9c0-0.5,0.4-0.9,0.9-0.9h34.8c0.5,0,0.9,0.4,0.9,0.9
			C1060.4,669.8,1060,670.2,1059.5,670.2z"/>
	</g>
</g>
</svg>
