<?xml version="1.0" encoding="UTF-8"?><svg id="Calque_1" xmlns="http://www.w3.org/2000/svg" viewBox="0 0 2000 1999.76"><defs><style>.cls-1{fill:#030307;}.cls-2{fill:#0c4a6e;}.cls-3{fill:#fb7185;}.cls-4{fill:#14b8a6;}.cls-5{fill:#5cc0bc;}.cls-6{fill:#fcfbfb;}</style></defs><path class="cls-2" d="M1999.9,900.25c-.03,357.57-.12,709.3-.22,1068.16,0,3.91,.07,7.26,.12,10.22,.19,9.96,.28,14.96-2.78,18.04-3.09,3.1-8.22,3.02-18.45,2.87-2.7-.04-5.76-.09-9.26-.09-547.26,.01-1094.53,0-1641.8,.01h-36.76c-89.65,0-182.36,0-273.53,.3h-.18c-6.4,0-10.28-1.14-12.94-3.79-2.65-2.64-3.83-6.62-3.82-12.91,.14-149.2,.2-300.89,.27-447.6,.06-139.78,.11-284.31,.24-426.46,0-1.13-.17-2.51-.34-3.97-.52-4.35-1.11-9.29,1.91-12.72,1.85-2.1,4.75-3.18,8.62-3.22,3.93-.03,6.88,1,8.76,3.08,3.06,3.4,2.49,8.35,2,12.72-.17,1.43-.32,2.79-.32,3.91,.21,96.15,.2,193.9,.2,288.44v71.32c0,7.45,0,12.37,1.45,13.87,1.42,1.46,5.91,1.46,13.34,1.47,7.42,0,14.85,0,22.27,0,14.99,0,30.49-.02,45.74,.09,.63,0,1.29,0,1.99-.03,4.95-.12,13.23-.31,13.55,9.94,.11,3.63-.74,6.31-2.6,8.18-2.94,2.97-7.35,2.87-11.25,2.78-.72-.02-1.4-.03-2.05-.03l-3.76,.03c-22.69,.15-46.16,.31-69.24-.08-3.84-.06-6.26,.53-7.6,1.85-1.36,1.35-1.99,3.82-1.96,7.79,.26,48.73,.27,100.5,.03,158.27-.01,3.71,.57,6.03,1.84,7.3,1.23,1.23,3.52,1.83,7,1.81,47.57-.21,98.25-.23,159.5-.04h.1c3.51,0,5.7-.56,6.9-1.77,1.13-1.15,1.66-3.19,1.62-6.24-.3-20.39-.3-41.21,0-61.89,.04-3.14-.5-5.23-1.65-6.39-1.19-1.2-3.44-1.77-6.84-1.73-26.48,.26-52.38,.13-74.22-.02-.66,0-1.36,.02-2.1,.04-4.9,.14-13.11,.36-13.6-9.74-.17-3.61,.66-6.4,2.48-8.28,2.93-3.03,7.42-2.95,11.38-2.89,.64,.01,1.27,.02,1.88,.02l5.08-.03c22.26-.14,45.27-.28,67.91,.08,3.96,.06,6.43-.53,7.78-1.87,1.35-1.33,1.97-3.75,1.95-7.61-.29-53.26-.29-106.51,0-158.27,.02-3.69-.61-6.11-1.92-7.42-1.36-1.34-3.9-1.94-7.99-1.87-11.3,.19-22.77,.17-33.87,.16-12.81-.02-26.05-.04-39.05,.26-6.15,.14-10.07-.96-12.71-3.54-2.6-2.55-3.81-6.49-3.8-12.41,.26-129.97,.26-259.74-.01-385.71,0-5.6,1.16-9.37,3.67-11.88,3.29-3.28,8.28-3.7,13.18-3.67,23.37,.14,47.13,.15,70.11,.15,32.13,0,65.35,0,98.04,.39,5.83,.07,9.26-.74,11.09-2.62,1.81-1.85,2.52-5.2,2.31-10.82-.66-17.52-.5-35.32-.34-52.54,.06-5.91,.11-12.02,.13-18.02v-.77c0-3.98,0-8.5,3.04-11.41,1.85-1.78,4.55-2.62,8.01-2.48,9.88,.38,9.86,8.53,9.85,13.41v1.01c.02,4.62,.05,9.24,.07,13.86,.11,19.38,.23,39.42-.17,59.15-.1,4.69,.54,7.47,2.06,9.01,1.49,1.51,4.21,2.19,8.53,2.16,51.05-.41,103.48-.41,155.81,0,4.34,.03,7.05-.64,8.54-2.12,1.52-1.52,2.19-4.28,2.18-8.97-.31-92.07-.3-174.97,.04-253.46,.02-4.9-.72-7.9-2.32-9.47-1.58-1.54-4.5-2.2-9.18-2.07-19.33,.53-38.98,.37-57.98,.23-4.6-.04-9.21-.07-13.81-.1-.56,0-1.13,0-1.71,.01-5.02,.07-13.41,.2-13.58-10.26-.05-3.38,.82-6,2.6-7.78,2.91-2.93,7.27-2.88,11.13-2.85,.43,0,.86,0,1.28,0,60.37-.07,123.59-.07,187.92,0,.35,0,.7,0,1.06,0,3.93-.02,8.38-.05,11.29,2.94,1.77,1.82,2.62,4.47,2.51,7.88-.32,10.33-8.62,10.17-13.58,10.07-.63-.01-1.25-.03-1.85-.02-3.27,.02-6.55,.04-9.82,.07-20.7,.14-42.12,.29-63.18-.14-4.05-.08-6.59,.53-8.01,1.92-1.45,1.42-2.11,4.12-2.08,8.48,.31,50.3,.31,101.67,.02,157.04-.02,3.97,.6,6.45,1.97,7.79,1.35,1.33,3.76,1.92,7.6,1.85,11.06-.2,22.29-.17,33.16-.15,13.04,.03,26.52,.07,39.75-.3,6.26-.17,10.26,.94,12.97,3.59,2.74,2.68,3.94,6.78,3.9,13.28-.44,67.74-.43,128.39,.03,185.4,.06,6.6-1.18,10.77-3.99,13.52-2.85,2.78-6.99,3.87-13.85,3.64-15.8-.51-31.92-.43-47.5-.35-5.88,.03-11.96,.07-17.93,.06-8.01,0-12.85,0-14.42,1.52-1.54,1.49-1.54,6.15-1.55,13.88,0,7.46,0,14.93,0,22.39,0,14.95,0,30.41-.07,45.61,0,.44,0,.88,0,1.33,.03,3.84,.05,8.18-2.87,11.07-1.79,1.77-4.4,2.64-7.78,2.58-10.45-.17-10.33-8.56-10.25-13.58,0-.58,.02-1.16,.01-1.72-.06-11.03-.07-22.26-.07-33.1,0-18.32,0-37.26-.31-55.88-.09-5.58,1.04-9.36,3.57-11.87,2.58-2.57,6.36-3.66,12.25-3.54,11.22,.23,22.64,.2,33.69,.19,12.46-.03,25.34-.05,38.03,.28,5.06,.13,8.03-.52,9.64-2.1,1.58-1.56,2.3-4.43,2.25-9.04-.44-45.89-.46-95.4-.06-155.81,.03-4.22-.63-6.86-2.09-8.28-1.44-1.4-4.04-2.01-8.21-1.89-18.33,.49-37.38,.5-58.23,.02-3.93-.09-6.39,.5-7.75,1.85-1.34,1.34-1.96,3.84-1.89,7.66,.2,11.13,.17,22.44,.15,33.37-.03,12.97-.07,26.38,.29,39.54,.17,6.41-.97,10.49-3.7,13.22s-6.8,3.87-13.18,3.7c-13.2-.36-26.65-.33-39.65-.3-10.9,.03-22.17,.06-33.26-.15-3.82-.07-6.33,.54-7.66,1.88-1.36,1.36-1.96,3.82-1.9,7.75,.38,22.96,.23,46.3,.08,68.87l-.03,4.13c0,.65,.01,1.32,.03,2.01,.08,3.91,.17,8.35-2.81,11.28-1.89,1.86-4.58,2.7-8.22,2.57-10.21-.36-10.01-8.63-9.89-13.56,.02-.71,.03-1.38,.03-2.02l-.05-7.79c-.15-20.97-.31-42.65,.13-63.98,.1-4.68-.53-7.46-2.05-8.99-1.48-1.51-4.19-2.21-8.54-2.19-83.31,.32-169,.33-254.69,0-4.39-.03-7.12,.67-8.61,2.16-1.51,1.52-2.17,4.26-2.14,8.89,.35,50.31,.36,102.74,.01,155.81-.03,4.26,.63,6.9,2.07,8.32,1.42,1.41,4.01,2.02,8.15,1.94,20.91-.41,42.16-.27,62.72-.14,3.43,.02,6.86,.04,10.29,.06,.56,0,1.14,0,1.72-.01,5.01-.08,13.4-.21,13.58,10.24,.06,3.37-.81,5.99-2.58,7.78-2.89,2.92-7.23,2.9-11.07,2.87-.45,0-.89,0-1.32,0-4.87,.03-9.74,.06-14.61,.09-18.74,.13-38.11,.26-57.17-.21-5.01-.13-7.97,.53-9.58,2.11-1.58,1.56-2.3,4.45-2.25,9.09,.49,50.52,.49,102.53,0,154.59-.05,4.78,.68,7.73,2.28,9.31,1.59,1.56,4.57,2.22,9.37,2.09,12.05-.34,24.29-.3,36.14-.27,11.26,.03,22.9,.07,34.33-.22,4.71-.12,9.99,.21,13.45,3.6,2.67,2.62,3.91,6.68,3.88,12.78-.36,94.79-.36,190.87,0,285.56,.02,6-1.18,10-3.79,12.6-3.39,3.38-8.74,3.8-13.51,3.77-25.87-.19-52.18-.2-77.62-.2-29.67-.01-60.35-.02-90.52-.31-5.48-.06-8.71,.7-10.45,2.44-1.72,1.72-2.52,4.97-2.48,10.24,.42,76.91,.43,159.02,.04,251-.02,5.43,.68,8.47,2.36,10.14,1.62,1.62,4.64,2.35,9.52,2.34,82.69-.43,167.55-.43,252.23,0,4.96,.03,8.03-.73,9.66-2.37,1.66-1.66,2.37-4.75,2.32-10-.46-50.68-.46-102.27,0-153.35,.04-4.77-.66-7.72-2.22-9.28-1.59-1.59-4.47-2.27-9.35-2.23-47.96,.42-98.52,.43-154.58,.03-4.67-.03-7.55,.67-9.07,2.23-1.47,1.51-2.09,4.21-1.95,8.48,.64,19.38,.63,38.56,0,57.04-.14,4.13,.5,6.86,1.95,8.34,1.55,1.58,4.41,2.23,9.26,2.14,21.35-.43,43.05-.28,64.04-.13l7.73,.06c.63,0,1.29-.01,1.99-.03,4.95-.12,13.24-.31,13.55,9.94,.11,3.58-.77,6.33-2.6,8.18-2.94,2.97-7.36,2.87-11.26,2.78-.72-.02-1.4-.03-2.05-.03-11.99,.08-24.18,.09-35.97,.1-17.39,.01-35.36,.03-53.03,.26-5.23,.05-8.8-1.03-11.22-3.45-2.47-2.46-3.58-6.19-3.52-11.74,.33-27.99,.59-57.81-.04-87.68-.14-6.69,1.01-10.91,3.74-13.68,2.74-2.78,6.93-4.01,13.58-3.98,68.96,.35,139.09,.34,206.9,.33,19.21,0,38.43,0,57.64,0,7.37,0,12.22,0,13.7-1.45,1.46-1.45,1.46-6.25,1.46-13.52,.01-36.49,0-72.98,0-109.48v-47.53c0-.97-.01-1.95-.03-2.92-.03-2.32-.06-4.72,.08-7.12,.04-.77,.05-1.58,.06-2.44,.04-4.69,.1-12.54,10.05-12.83,3.35-.1,5.97,.73,7.76,2.45,2.91,2.79,2.97,7.06,3.01,10.82,0,.52,.01,1.03,.03,1.53,.11,3.84,.09,7.74,.07,11.5,0,1.55-.02,3.1-.02,4.64,0,5.55,.04,11.2,.08,16.66,.1,13.2,.2,26.86-.25,40.29-.14,4.25,.51,7.05,1.99,8.55,1.53,1.55,4.41,2.22,9.03,2.11,10.62-.25,21.41-.2,31.84-.15,12.66,.06,25.75,.12,38.58-.36,6.69-.25,10.96,.89,13.83,3.68,3.72,3.62,4.17,9.43,4.11,14.64-.27,28.29-.27,57.07-.28,84.89,0,26.88,0,54.67-.25,82.01-.05,5.73,.68,8.94,2.44,10.7,1.71,1.72,4.89,2.49,10.01,2.47,81.68-.47,166.13-.47,251-.01,5.35,.02,8.51-.73,10.26-2.48,1.74-1.75,2.49-4.97,2.44-10.44-.39-40.05-.33-80.77-.27-120.15,.02-13.94,.04-27.88,.04-41.82,0-4,.04-7.65,.12-11.18,.17-7.62,3.64-11.5,10.31-11.53h.08c4.69,0,10.25,2,10.36,11.44,.1,9.22,.13,18.51,.13,27.23,0,4.54,.07,9.17,.12,13.64,.13,10.97,.27,22.31-.31,33.47-.28,5.28,.39,8.58,2.11,10.37,1.75,1.82,5.06,2.65,10.43,2.58,38.75-.41,78.15-.38,116.25-.34,16.61,.01,33.78,.03,50.67,0,8.03,0,12.87-.02,15.79,2.9,2.77,2.78,2.88,7.18,2.86,15.37-.03,8.25-.01,16.64,0,24.75,.02,15.4,.04,31.32-.19,46.98-.05,3.65,.51,5.95,1.77,7.23,1.24,1.25,3.56,1.85,7.08,1.85,86.82-.19,173.76-.19,258.4,0h.07c3.35,0,5.57-.6,6.78-1.82,1.27-1.28,1.84-3.66,1.79-7.48-.26-23.12-.16-46.62-.05-69.35l.02-4.87c0-.43,0-.87,0-1.32-.03-3.84-.05-8.19,2.87-11.08,1.79-1.77,4.4-2.64,7.78-2.58,10.45,.18,10.32,8.57,10.24,13.58-.01,.58-.02,1.16-.02,1.72,.02,3.44,.04,6.88,.07,10.31,.13,20.55,.27,41.79-.14,62.69-.08,4.21,.55,6.83,1.99,8.27,1.43,1.43,4.06,2.05,8.23,1.97,24.57-.52,49.45-.3,70.55-.02,.96,0,2.04-.07,3.18-.14,3.91-.27,8.35-.58,11.45,2.26,1.93,1.76,2.94,4.47,3.01,8.03,.07,3.67-.87,6.46-2.79,8.31-3.09,2.96-7.63,2.68-11.64,2.44-1.03-.06-2-.11-2.88-.12-67.99,.13-137.12,.12-203.97,.11h-48.24c-74.18,0-148.36,0-222.53,0-3.73,0-7.49-.04-11.19-.13-9.44-.23-11.32-5.92-11.23-10.65,.13-6.65,4.08-10.04,11.74-10.1,10.4-.08,20.96-.1,31.17-.11h7.17c3.74-.02,7.49-.04,11.24-.06,9.7-.05,19.73-.1,29.61,.07,2.91,.06,4.86-.45,5.96-1.54,1.13-1.11,1.66-3.13,1.62-6.18-.19-18.45-.2-38.49-.03-63.09,.02-2.73-.47-4.56-1.5-5.6-1.01-1.01-2.78-1.51-5.4-1.51h-.03c-59.89,.1-113.28,.1-163.2,0h-.04c-2.43,0-4.07,.47-5.03,1.43-1.15,1.16-1.63,3.31-1.61,7.21,.06,8.95,.04,18.05,.03,26.84-.03,15.51-.05,31.54,.3,47.29,.13,6.11-.96,10.01-3.54,12.65-2.54,2.59-6.47,3.8-12.36,3.8h-.1c-100.86-.24-203.41-.26-302.59-.29-26.47,0-52.95-.01-79.42-.02-.32,0-.63,0-.95,0-.93,0-1.89,0-2.87-.03-.5-.02-.99-.03-1.49-.05-3.74-.1-7.98-.22-10.72-3.14-1.73-1.84-2.52-4.4-2.41-7.82,.33-9.92,8.5-9.91,13.38-9.91,.33,0,.66,0,.98,0,14.6-.09,29.44-.08,43.79-.07,4.78,0,9.56,0,14.33,0,13.1,0,20.3,0,23.11-2.85,2.82-2.88,2.82-10.24,2.82-23.62,0-12.48-.03-25.16-.05-37.43-.07-33.12-.13-67.37,.28-101.06,.06-5.1-.71-8.25-2.42-9.91-1.69-1.64-4.8-2.32-9.82-2.12-19.01,.75-37.82,.47-57.01,.1-3.55-.07-5.9,.51-7.17,1.77-1.26,1.26-1.86,3.6-1.8,7.15,.17,11.15,.15,22.48,.13,33.43-.02,13.35-.04,27.16,.27,40.72,.13,5.99-1.02,10-3.63,12.61-2.62,2.62-6.64,3.78-12.65,3.63-12.33-.29-24.89-.26-37.03-.24-11.76,.03-23.93,.05-35.9-.21-4.08-.09-6.64,.52-8.06,1.92-1.45,1.42-2.11,4.1-2.08,8.41,.31,49.59,.32,100.96,.02,157.04-.02,4.22,.69,6.93,2.17,8.28,1.35,1.23,3.68,1.67,7.13,1.34,2.38-.23,4.75-.17,7.04-.1,1.02,.03,2.08,.06,3.09,.06H1465.12c1.21,0,2.45-.02,3.65-.04,2.48-.04,5.05-.09,7.62,.05,3.06,.17,5.2-.34,6.35-1.49,1.09-1.09,1.56-3.03,1.41-5.77-.15-2.55-.1-5.11-.05-7.59,.02-1.22,.05-2.47,.05-3.69,0-21.2,0-42.4,0-63.61,0-95.85-.02-194.97,.2-292.45,0-1.16-.17-2.57-.34-4.07-.53-4.41-1.12-9.42,1.89-12.87,1.79-2.07,4.59-3.15,8.3-3.23,4.21-.08,7.21,.93,9.19,3.13,3.16,3.51,2.52,8.66,1.95,13.22-.2,1.56-.38,3.03-.38,4.22,.23,94.92,.23,191.42,.22,284.76,0,25.01,0,50.01,0,75.02,0,7.02,0,11.65,1.39,13.03,1.39,1.39,6.04,1.39,13.08,1.39,88.74,.02,169.62,.02,247.26,0,6.8,0,11.3,0,12.63-1.31,1.32-1.29,1.32-5.71,1.32-12.39,.03-51.2,.03-101.52,0-149.59,0-6.57,0-10.91-1.32-12.17-1.36-1.3-5.93-1.31-12.84-1.32-8.59-.02-17.19-.01-25.79-.01-14.24,0-28.97,0-43.46-.06-.43,0-.86,0-1.3,0-3.84,.03-8.2,.05-11.09-2.88-1.77-1.79-2.64-4.41-2.57-7.79,.2-10.47,8.62-10.31,13.65-10.22,.56,0,1.13,.02,1.68,.02,9.97-.02,19.95-.04,29.93-.07,45.71-.1,92.97-.21,139.46,.23,5.4,.06,8.59-.71,10.34-2.46,1.75-1.75,2.51-4.95,2.45-10.37-.4-41.25-.33-83.19-.27-123.75,.02-13.57,.04-27.13,.05-40.7,0-3.61,.05-7.48,.37-11.33,.47-5.66,4.09-8.95,9.94-9.01,5.91-.06,9.66,3.08,10.25,8.64,.37,3.51,.43,7.1,.43,10.14,.02,97.63,.02,195.41,.01,279.4,0,2.56-.07,5.11-.13,7.49-.27,9.44-5.95,11.31-10.68,11.2-6.62-.14-10.01-4.1-10.07-11.76-.08-10.33-.1-20.83-.11-30.99v-7.35c-.02-3.77-.04-7.53-.06-11.3-.05-9.68-.1-19.69,.07-29.55,.05-2.89-.45-4.84-1.54-5.93-1.11-1.13-3.15-1.66-6.2-1.62-18.49,.19-38.53,.2-63.09,.03-2.72-.03-4.54,.47-5.57,1.5-1.02,1.02-1.52,2.81-1.51,5.47,.09,53.17,.09,108.08,0,163.2,0,2.45,.46,4.11,1.43,5.08,1.06,1.05,3.01,1.56,5.98,1.56,65.09-.1,115.04-.1,161.97,.03h.06c2.91,0,4.93-.58,6-1.72,1.08-1.15,1.52-3.13,1.34-6.06-.11-1.74-.07-3.46-.03-5.12,.02-.82,.03-1.64,.03-2.45v-64.98c0-158.84,0-317.68,0-476.52,0-7.82,0-12.54-1.54-14.06-1.55-1.53-6.32-1.53-14.24-1.53-74.32,0-160.76-.01-246.02,0-6.77,0-11.24,0-12.56,1.31-1.31,1.3-1.32,5.73-1.33,12.45-.01,5.31,.05,10.73,.11,15.97,.13,11.42,.28,23.22-.36,34.84-.31,5.66,.36,9.03,2.17,10.91,1.82,1.89,5.32,2.74,11.03,2.68,39.3-.49,79.27-.41,117.91-.33,14.04,.03,28.56,.06,42.83,.06h1.89c2.63,0,5.36,0,8.05,.05,3.92,.08,8.36,.18,11.22,3.16,1.71,1.78,2.53,4.34,2.46,7.58-.24,10.12-8.6,10.14-13.59,10.14h-.59c-5.73,.03-11.46,.07-17.19,.1-18.29,.13-37.21,.26-55.83-.24-4.65-.13-7.55,.54-9.13,2.09-1.62,1.59-2.33,4.54-2.29,9.54,.31,39.11,.3,78.87,.28,117.33,0,16.66-.01,33.89,0,50.82,0,7.85,.01,12.58-2.88,15.47-2.91,2.9-7.73,2.89-15.71,2.86-11.63-.04-23.46-.04-34.91-.05-16.52,0-33.6-.02-50.41-.12-.63,0-1.29,.01-1.99,.03-4.95,.12-13.24,.33-13.58-9.91-.12-3.64,.73-6.32,2.58-8.2,2.94-2.97,7.36-2.88,11.27-2.8,.71,.02,1.39,.03,2.03,.03l3.88-.03c22.66-.15,46.08-.3,69.13,.08,3.86,.06,6.28-.53,7.62-1.86,1.36-1.35,1.99-3.81,1.96-7.77-.3-55.18-.29-106.55,.02-157.04,.03-4.38-.63-7.08-2.08-8.51-1.42-1.39-3.95-1.99-7.98-1.91-12.07,.27-24.32,.25-36.18,.22-12.06-.03-24.52-.05-36.75,.23-6.13,.15-10.04-.97-12.69-3.6-2.61-2.6-3.78-6.58-3.68-12.53,.47-28.01,.47-57.1,0-88.92-.08-5.62,1.06-9.4,3.58-11.92,2.54-2.52,6.41-3.65,12.19-3.53,10.53,.21,21.25,.18,31.62,.14,13.15-.04,26.74-.08,40.11,.37,4.89,.17,7.95-.53,9.63-2.2,1.72-1.71,2.42-4.84,2.27-10.14-.55-19.58-.38-39.48-.21-58.72,.03-3.94,.07-7.89,.1-11.83,0-.66-.02-1.36-.03-2.1-.14-4.9-.36-13.11,9.75-13.59,3.66-.17,6.37,.64,8.28,2.49,3.02,2.93,2.95,7.42,2.88,11.37,0,.64-.02,1.27-.02,1.89l.03,5c.14,22.28,.28,45.32-.08,68-.06,3.97,.53,6.44,1.87,7.8,1.33,1.35,3.74,1.97,7.6,1.94,53.24-.29,106.49-.29,158.27,0,3.63,.03,6.03-.59,7.32-1.88,1.37-1.36,1.97-3.85,1.97-8.08-.2-130.9-.19-246.97,.04-354.83,0-4.16-.66-6.76-2.09-8.16-1.43-1.41-4.07-2.02-8.31-1.94-20.71,.39-41.76,.26-62.12,.14-3.63-.02-7.25-.04-10.88-.07-.5,0-1.02,0-1.54,0-3.77,.04-8.04,.09-10.93-2.77-1.77-1.76-2.67-4.34-2.67-7.68s.9-5.91,2.68-7.67c2.89-2.86,7.16-2.81,10.93-2.77,.52,0,1.04,.01,1.54,0,3.63-.02,7.25-.04,10.88-.06,20.36-.12,41.41-.25,62.12,.14,4.35,.07,7.05-.56,8.49-2.02,1.39-1.41,2.02-4.04,1.9-8.03-.5-17.32-.51-35.82-.04-58.23,.09-4.07-.5-6.59-1.84-7.96-1.29-1.31-3.67-1.94-7.28-1.94h-.18c-51.89,.3-105.14,.3-158.27,0-3.79-.01-6.19,.59-7.52,1.91-1.35,1.34-1.96,3.84-1.94,7.87,.3,57.03,.28,108.4-.03,157.04-.03,4.26,.63,6.91,2.08,8.33,1.42,1.41,4.02,2.02,8.15,1.93,12.54-.26,25.28-.25,37.61-.23,11.71,.02,23.82,.03,35.71-.2,5.84-.11,9.58,.97,12.15,3.5,2.52,2.49,3.69,6.27,3.66,11.89-.26,45.26-.27,91.28-.29,135.78,0,16.96-.01,33.92-.03,50.89,0,2.87-.12,5.37-.35,7.66-.58,5.63-4.21,8.9-9.95,8.96h-.18c-5.86,0-9.52-3.15-10.07-8.67-.39-3.97-.43-7.94-.43-11.36-.02-34.57-.02-69.14-.02-103.71,0-19,0-38,0-57.01,0-8.3,0-13.32-1.69-14.96-1.72-1.67-6.92-1.68-15.52-1.68-5.1,0-10.29,.03-15.31,.07-11.62,.09-23.63,.17-35.46-.23-3.99-.13-6.61,.48-8.03,1.87-1.47,1.45-2.11,4.14-2.02,8.49,.23,10.76,.19,21.69,.15,32.26-.05,12.93-.1,26.3,.34,39.4,.21,6.47-.97,10.78-3.74,13.55-2.82,2.83-7.14,4-14,3.78-10.97-.34-22.16-.28-32.99-.22-11.88,.06-24.16,.13-36.25-.33-5.15-.2-8.38,.53-10.14,2.29-1.82,1.8-2.54,5.1-2.35,10.7,.53,15.49,.45,31.24,.37,46.46-.04,7.09-.08,14.41-.05,21.61,.03,8.12-.09,12.49-2.87,15.27-2.82,2.81-7.38,2.92-15.89,2.89-7.83-.03-15.8,0-23.5,.01-15,.04-30.51,.09-45.78-.26-4.64-.1-7.41,.52-8.94,2.03-1.52,1.49-2.22,4.21-2.2,8.59,.32,83.74,.33,169.43,0,254.69-.02,4.43,.68,7.19,2.2,8.68,1.52,1.49,4.32,2.14,8.84,2.04,21.21-.46,42.77-.3,63.62-.14l8.16,.06c.66,0,1.36-.02,2.1-.03,4.9-.14,13.1-.37,13.6,9.74,.17,3.61-.66,6.39-2.48,8.28-2.93,3.03-7.42,2.95-11.38,2.89-.63,0-1.26-.02-1.87-.02l-5.09,.03c-22.26,.14-45.27,.28-67.91-.08-3.95-.07-6.42,.53-7.77,1.86-1.35,1.33-1.97,3.75-1.96,7.62,.23,86.42,.23,172.94,0,257.17-.01,3.7,.62,6.13,1.94,7.42,1.36,1.34,3.89,1.94,7.98,1.88,24.24-.36,48.88-.2,72.71-.04h.29c.63,0,1.3,0,2-.03,4.94-.12,13.22-.32,13.56,9.91,.12,3.58-.75,6.34-2.58,8.2-2.94,2.97-7.37,2.88-11.27,2.8-.71-.02-1.39-.03-2.03-.03-10.88,.07-21.94,.06-32.64,.06-18.07,0-36.75-.02-55.1,.33-5.78,.11-9.68-1.02-12.26-3.56-2.65-2.61-3.81-6.58-3.78-12.86,.25-46.06,.22-92.9,.19-138.2,0-15.33-.02-30.66-.02-45.99v-2.61h.13c0-14.86-.02-29.71-.03-44.57-.06-44.11-.11-89.72,.27-134.58,.05-6.14-.71-9.54-2.55-11.37-1.79-1.78-5.12-2.56-10.5-2.49-45.96,.65-94.3,.66-152.12,.07-5.1-.06-8.24,.71-9.9,2.4-1.64,1.68-2.33,4.8-2.17,9.82,.39,12.66,.35,25.53,.31,37.97-.03,10.67-.07,21.69,.17,32.51,.1,4.55-.24,9.65-3.57,13.02-2.54,2.58-6.39,3.78-12.15,3.72-45.97-.31-92.71-.31-137.91-.32-15.84,0-31.68,0-47.52-.01-1.72,0-3.42-.03-4.99-.07-3.48-.07-12.7-.25-12.52-10.66,.17-10.17,9.11-10.19,12.93-10.2,23.75-.06,47.89-.07,71.23-.07h6.66c8.62,0,17.24-.03,25.85-.05,23.14-.06,47.07-.12,70.61,.2,4.22,.05,6.85-.59,8.28-2.03,1.42-1.43,2.04-4.04,1.95-8.22-.23-10.94-.2-22.06-.16-32.81,.05-12.75,.1-25.93-.32-38.85-.21-6.52,.92-10.67,3.65-13.47,2.76-2.82,7.05-4.05,13.9-4,27,.24,54.47,.25,81.03,.25,28.55,0,58.07,0,87.11,.31,5.27,.07,8.5-.72,10.23-2.45,1.75-1.75,2.51-4.99,2.46-10.49-.38-39.05-.36-78.76-.33-117.16,.01-16.31,.02-33.18,0-49.76,0-8.23,.11-12.66,2.88-15.42,2.79-2.78,7.32-2.91,15.75-2.87,7.83,.03,15.8,.01,23.52,0,14.99-.04,30.5-.08,45.76,.25,4.89,.11,7.77-.55,9.32-2.12,1.46-1.48,2.09-4.19,1.95-8.3-.58-16.84-.6-35.34-.06-58.25,.09-3.78-.51-6.26-1.83-7.6-1.36-1.37-3.85-1.98-7.82-1.91-22.89,.37-46.15,.22-68.65,.08l-4.35-.03c-.64,0-1.3,0-1.97,.02-3.93,.07-8.38,.16-11.31-2.84-1.85-1.89-2.68-4.59-2.54-8.24,.41-10.22,8.7-9.98,13.65-9.84,.7,.02,1.35,.03,1.98,.04l19.96-.04c48.98-.1,99.62-.21,149.43,.16,5.33,.05,8.44-.68,10.1-2.33,1.63-1.63,2.38-4.67,2.36-9.57-.32-62.7-.31-126.46-.3-188.12,0-25.46,0-51.79-.01-77.69,0-8.73,0-13.55,2.88-16.44,2.87-2.87,7.52-2.86,15.96-2.85,17.47,.03,35.23,.02,52.41,0,37.53-.02,76.33-.03,114.5,.29,5.24,.04,8.33-.68,9.99-2.33,1.64-1.63,2.39-4.7,2.37-9.67-.43-84.96-.43-169.82,0-252.23,.03-4.86-.72-7.88-2.34-9.51-1.67-1.68-4.72-2.38-10.15-2.36-92.25,.39-174.35,.37-250.99-.05-5.42-.03-8.77,.8-10.5,2.61-1.7,1.77-2.39,5.03-2.16,10.27,.78,17.65,.6,35.07,.1,55.8-.1,3.83,.51,6.34,1.84,7.68,1.34,1.35,3.87,1.97,7.73,1.9,11.05-.2,22.27-.17,33.13-.15,13.05,.03,26.54,.07,39.78-.3,6.36-.18,10.42,.96,13.15,3.69,2.73,2.73,3.88,6.82,3.71,13.25-.36,13.13-.32,26.5-.29,39.44,.03,10.97,.06,22.31-.15,33.47-.07,3.81,.54,6.3,1.89,7.64,1.36,1.36,3.84,1.95,7.78,1.86,20.96-.48,40.01-.47,58.23,.03,4.2,.11,6.83-.5,8.28-1.94,1.44-1.43,2.08-4.05,1.99-8.23-.42-21-.28-42.34-.14-62.98,.02-3.35,.05-6.69,.07-10.03,0-.58,0-1.18-.02-1.79-.09-4.98-.23-13.32,10.16-13.58,3.39-.08,6.02,.77,7.83,2.54,2.95,2.89,2.93,7.28,2.91,11.16,0,.41,0,.81,0,1.21,.05,10.98,.06,22.15,.07,32.95,0,18.78,.02,38.19,.27,57.27,.07,5.11-1.02,8.61-3.41,11.01-3.19,3.21-8.08,3.58-11.96,3.53-30.86-.31-61.2-.31-90.19,.02-5.38,.06-9.01-1.06-11.46-3.51-2.45-2.46-3.55-6.12-3.46-11.51,.18-11.47,.17-23.15,.17-34.45-.01-13.02-.03-26.49,.26-39.74,.09-4.13-.53-6.71-1.96-8.14-1.44-1.44-4.1-2.08-8.36-1.99-11.77,.25-23.73,.23-35.29,.2-12.34-.03-25.11-.05-37.63,.26-5.9,.14-9.87-1-12.47-3.61-2.66-2.66-3.78-6.61-3.64-12.8,.27-11.23,.23-22.67,.2-33.73-.04-12.44-.08-25.31,.31-37.98,.14-4.64-.53-7.53-2.1-9.11-1.6-1.61-4.65-2.29-9.6-2.17-19.19,.49-38.69,.35-57.55,.21-4.74-.03-9.49-.07-14.23-.09-.5,0-1,0-1.51,0-3.78,.04-8.06,.08-10.95-2.79-1.77-1.76-2.67-4.35-2.66-7.69,0-3.33,.91-5.91,2.69-7.66,2.89-2.85,7.15-2.8,10.9-2.75,.53,0,1.06,.01,1.57,0,3.6-.02,7.2-.04,10.8-.07,20.38-.12,41.46-.25,62.2,.14,4.32,.08,7-.56,8.44-2.01,1.4-1.4,2.03-4.04,1.94-8.06-.56-23.72-.53-45.6,.09-66.89,.04-1.32-.17-2.98-.4-4.75-.58-4.55-1.23-9.71,1.82-13.21,1.83-2.09,4.69-3.16,8.51-3.19,4.18-.03,7.17,1.03,9.14,3.25,3.16,3.57,2.48,8.87,1.87,13.54-.24,1.84-.46,3.58-.42,4.95,.67,21.02,.7,43.11,.08,65.67-.11,4.28,.51,6.97,1.98,8.47,1.5,1.54,4.38,2.26,9.06,2.23,82.09-.28,167.78-.28,254.69-.01,4.32,0,7.01-.66,8.43-2.12,1.39-1.43,1.98-3.99,1.86-8.05-.52-17.23-.87-35.77,.09-54.59,.29-5.65-.39-9.01-2.2-10.88-1.82-1.89-5.33-2.73-11.06-2.67-39.31,.48-79.27,.4-117.92,.33-14.04-.03-28.55-.06-42.83-.06h-1.71c-2.69,0-5.48,0-8.23-.05-3.71-.07-8.31-.17-11.19-3.18-1.71-1.79-2.53-4.36-2.44-7.63,.29-10.1,8.63-10.1,13.61-10.09h.63c33.82-.04,68.2-.04,101.45-.05,22.64,0,45.28,0,67.93-.02,6.68,0,11.1,0,12.39-1.32,1.31-1.33,1.31-5.82,1.32-12.63,0-22.01-.01-44.02-.03-66.03-.03-59.81-.07-121.65,.29-182.48,.03-5.94-.79-9.4-2.67-11.23-1.82-1.76-5.22-2.49-10.68-2.28-17.55,.68-35.4,.51-52.66,.34-5.87-.06-11.94-.11-17.91-.14h-.91c-3.94,0-8.4,0-11.31-2.99-1.78-1.84-2.63-4.51-2.52-7.96,.3-9.95,8.51-9.94,13.43-9.94h.92c4.62-.02,9.24-.05,13.87-.07,19.38-.11,39.42-.22,59.13,.16,4.74,.1,7.55-.54,9.08-2.06,1.48-1.46,2.18-4.23,2.15-8.46-.41-50.44-.41-102.86,0-155.81,.03-4.38-.64-7.11-2.12-8.6-1.51-1.52-4.26-2.19-8.9-2.17-90.96,.31-173.87,.3-253.46-.03-5-.03-7.94,.7-9.53,2.32-1.54,1.58-2.2,4.47-2.07,9.13,.53,19.38,.38,39.09,.23,58.14-.03,4.55-.07,9.1-.1,13.65,0,.58,0,1.17,.02,1.77,.08,4.99,.23,13.34-10.18,13.57-3.38,.08-6.02-.78-7.82-2.55-2.94-2.89-2.92-7.27-2.9-11.13,0-.42,0-.83,0-1.24-.03-5.62-.07-11.33-.12-16.85-.15-18.01-.31-36.63,.29-54.95,.16-4.91-.55-7.98-2.24-9.67-1.7-1.69-4.92-2.39-10.12-2.19-19.8,.74-39.81,.43-57.01,.09-3.48-.07-5.77,.5-7.03,1.75-1.28,1.27-1.87,3.65-1.82,7.3,.3,23.85,.17,48.1,.04,71.54v2.68c-.02,.54,0,1.09,0,1.64,.05,3.74,.1,7.97-2.72,10.86-1.74,1.78-4.3,2.7-7.62,2.73-3.35,.04-5.96-.86-7.74-2.63-2.89-2.89-2.85-7.2-2.82-11,0-.48,0-.96,0-1.42-.02-3.76-.04-7.52-.06-11.27-.12-20.23-.23-41.14,.13-61.73,.08-4.34-.55-7.02-1.96-8.45-1.4-1.42-3.94-2.08-8.03-2.04-51.91,.36-104.74,.36-157.04,0-4.12-.03-6.69,.62-8.09,2.05-1.42,1.43-2.03,4.1-1.95,8.39,.23,11.4,.2,22.99,.18,34.2-.03,12.29-.06,25.01,.26,37.49,.11,4.48-.21,10.07-3.71,13.58-2.66,2.67-6.73,3.84-12.8,3.69-15.54-.37-31.37-.36-46.67-.34-12.24,.01-24.91,.03-37.36-.16-1.08-.01-2.37,.1-3.74,.23-4.15,.4-8.85,.85-12.1-2.07-1.98-1.78-3.01-4.52-3.05-8.15-.05-4.02,.95-6.91,3.05-8.83,3.31-3.03,8.15-2.53,12.41-2.09,1.48,.15,2.87,.3,4.02,.27,25.04-.55,47.32-.56,68.11-.02,4.39,.11,7.13-.54,8.65-2.07,1.53-1.54,2.18-4.37,2.05-8.92-.63-21.24-.36-42.27-.06-58.23,.07-3.51-.5-5.83-1.74-7.09-1.26-1.27-3.62-1.88-7.23-1.86-43.23,.19-100.28,.35-158.27-.06-3.89-.02-6.46,.63-7.83,2.02-1.43,1.45-2.04,4.13-1.95,8.68,.2,10.96,.18,22.09,.15,32.85-.03,12.74-.06,25.9,.29,38.83,.17,6.45-.96,10.54-3.68,13.27-2.72,2.73-6.75,3.88-13.09,3.74-19-.42-38.34-.4-57.04-.37-10.06,.01-20.46,.03-30.69-.03-.53,0-1.08,0-1.62,.01-3.74,.05-7.98,.1-10.87-2.73-1.78-1.74-2.69-4.31-2.72-7.63-.02-3.35,.86-5.95,2.64-7.72,2.89-2.88,7.19-2.85,10.99-2.81,.49,0,.97,0,1.45,0,3.71-.02,7.42-.04,11.13-.06,20.27-.12,41.24-.24,61.87,.13,4.4,.08,7.13-.56,8.58-2.02,1.39-1.4,2-4,1.89-7.95-.5-16.96-.51-35.47-.04-58.23,.08-4.12-.5-6.68-1.85-8.04-1.29-1.32-3.7-1.96-7.38-1.93-43.16,.25-100.16,.47-158.28-.06-3.72-.03-6.18,.6-7.52,1.92-1.83,1.82-1.97,5.43-1.96,10.33,.13,83.3,.2,172.85-.13,263.35,0,1.19,.17,2.65,.36,4.2,.56,4.56,1.19,9.73-1.99,13.21-2,2.19-5.03,3.18-9.27,3.04-3.66-.12-6.41-1.23-8.18-3.29-2.98-3.47-2.39-8.47-1.87-12.88,.18-1.51,.35-2.94,.35-4.11-.24-71.62-.46-166.13,.04-262.12,.03-6.07-.74-9.44-2.58-11.26-1.79-1.77-5.14-2.56-10.58-2.49-44.7,.62-92.65,.64-150.88,.07-5.82-.06-9.06,.67-10.83,2.45-1.71,1.71-2.48,4.87-2.42,9.92,.56,46.01,.57,96.17,.05,153.35-.04,4.88,.69,7.89,2.31,9.47,1.59,1.55,4.52,2.19,9.21,2.02,20.4-.76,40.27-.46,57.02-.07,3.94,.09,6.42-.5,7.78-1.85,1.34-1.33,1.96-3.83,1.9-7.64-.4-23.38-.23-47.14-.07-70.12l.02-2.88c0-.68-.01-1.39-.03-2.14-.1-3.87-.21-8.25,2.73-11.19,1.83-1.84,4.57-2.74,8.13-2.66,10.33,.22,10.16,8.57,10.06,13.55-.01,.64-.03,1.28-.02,1.89,.07,11.26,.07,22.72,.07,33.79,0,18.09,0,36.81,.31,55.2,.09,5.43-1.03,9.11-3.5,11.6-3.29,3.3-8.4,3.67-12.49,3.61-30.73-.39-60.65-.38-88.94,.02-5.72,.07-9.55-1.06-12.07-3.6-2.52-2.53-3.64-6.35-3.53-12.03,.25-12.56,.23-25.36,.22-37.73,0-11.94-.02-24.29,.2-36.44,.07-3.81-.52-6.22-1.84-7.56-1.35-1.37-3.85-1.99-7.83-1.97-63.16,.33-111.59,.32-157.04-.06-4.08-.04-6.75,.64-8.18,2.07-1.53,1.52-2.18,4.33-2.16,9.37,.2,54.79,.18,110.5,.16,164.38,0,17.32-.01,34.65-.01,51.98,0,19.28,.01,38.57,.03,57.86,.04,57.22,.09,116.39-.27,174.58-.04,6.01,.73,9.35,2.55,11.18,1.78,1.78,5.17,2.6,10.64,2.55,82.56-.53,166.6-.53,249.76,0,5.66,.03,9.16-.82,10.96-2.68,1.79-1.85,2.49-5.23,2.27-10.93-.44-11.37-.37-22.92-.3-34.09,.07-11.13,.15-22.62-.29-33.89-.26-6.66,.93-11.09,3.74-13.94,2.93-2.97,7.32-4.15,14.67-3.97,28.34,.72,56.57,.71,83.92-.01,6.96-.19,11.34,.99,14.21,3.81,2.88,2.83,4.13,7.21,4.06,14.18-.29,27.28-.29,55.03-.29,81.86,0,27.87,0,56.69-.32,85.03-.07,5.75,.71,9.11,2.51,10.93,1.81,1.82,5.17,2.61,10.9,2.58,45.84-.27,92.45-.3,137.52-.32,42.04-.02,85.53-.04,128.28-.27,7.22-.05,11.54,1.21,14.41,4.16,2.79,2.88,3.93,7.2,3.69,14.01-.45,12.56-.39,25.38-.33,37.77,.05,10.7,.1,21.76-.17,32.66-.11,4.36,.53,7.09,2.01,8.6,1.51,1.53,4.34,2.23,8.93,2.2,25.32-.17,51.07-.18,75.97-.18,30.61,0,62.27,0,93.39-.33,7.03-.07,11.43,1.19,14.28,4.1,2.82,2.88,3.96,7.26,3.72,14.18-.43,12.43-.37,25.12-.31,37.39,.05,10.83,.1,22.02-.18,33.04-.11,4.35,.54,7.09,2.05,8.6,1.52,1.53,4.37,2.2,8.96,2.1,20.41-.45,41.17-.3,61.23-.17,3.51,.03,7.03,.05,10.54,.07,.61,0,1.24,0,1.87-.02,3.96-.07,8.45-.14,11.38,2.89,1.82,1.89,2.66,4.67,2.48,8.28-.5,10.1-8.7,9.87-13.6,9.73-.74-.02-1.44-.04-2.1-.03l-8.15,.06c-20.85,.16-42.41,.32-63.63-.14-4.6-.1-7.46,.57-8.98,2.1-1.51,1.51-2.16,4.24-2.06,8.58,.46,19.33,.33,38.97,.2,57.97-.03,5.01-.07,10.03-.09,15.04,0,.56,.01,1.16,.03,1.79,.11,4.13,.29,10.38-6.39,12.39-4.37,1.31-7.86,1.03-10.36-.83-3.73-2.78-4.21-8.22-4.21-12.65,0-17.33-.03-34.96-.06-52-.03-16.46-.05-32.91-.06-49.37,0-5.82-.02-11.63-.03-17.45-.06-17.8-.11-36.2,.29-54.31,.09-4.07-.52-6.62-1.92-8.05-1.42-1.45-4.11-2.11-8.43-2.08-49.75,.31-101.13,.32-157.04,.02-4-.03-6.49,.6-7.84,1.97-1.32,1.34-1.91,3.74-1.84,7.55,.39,21.7,.38,44.78-.02,70.55-.01,1.03,.08,2.22,.18,3.48,.32,4.1,.68,8.75-2.31,11.92-1.91,2.02-4.74,2.97-8.66,2.88-3.51-.08-6.17-1.09-7.92-3.01-2.86-3.15-2.51-7.67-2.2-11.65,.09-1.15,.17-2.23,.17-3.17-.15-38.99-.14-78.63-.14-116.96,0-16.23,0-32.47,0-48.7,0-6.64,0-11.03-1.32-12.32-1.34-1.31-5.86-1.31-12.7-1.31-39.11,0-78.21,0-117.32,0-140.24,.01-285.26,.03-427.9-.26-5.69,0-9.04,.78-10.84,2.57-1.79,1.79-2.58,5.17-2.57,10.94,.35,175.73,.36,354.48,.03,546.45,0,5.5,.76,8.72,2.48,10.45s4.9,2.49,10.21,2.48c90.07-.17,182.23-.25,277.9-.25,86.66,0,176.21,.07,269.78,.2h.09c5.4,0,8.41-.71,10.07-2.38,1.62-1.62,2.36-4.64,2.33-9.5-.32-62.7-.31-126.47-.3-188.12,0-25.47,0-51.8-.01-77.7,0-8.75,0-13.58,2.89-16.47,2.88-2.87,7.52-2.85,15.95-2.82,7.85,.03,15.84,0,23.57-.02,14.98-.04,30.47-.1,45.71,.26,4.59,.11,7.44-.55,8.98-2.08,1.51-1.51,2.17-4.24,2.06-8.59-.45-19.33-.32-38.97-.2-57.96,.03-5.02,.07-10.04,.09-15.05,0-.56-.01-1.16-.03-1.79-.12-4.13-.29-10.37,6.39-12.38,4.37-1.31,7.85-1.03,10.36,.83,3.74,2.78,4.21,8.22,4.22,12.65,0,17.34,.03,34.97,.06,52.01,.03,16.45,.05,32.91,.06,49.36,0,5.82,.02,11.64,.04,17.47,.05,17.79,.11,36.19-.3,54.29-.09,4.07,.52,6.63,1.92,8.05,1.42,1.45,4.09,2.1,8.44,2.08,49.74-.31,101.11-.32,157.03-.03,4,.02,6.5-.6,7.85-1.97,1.32-1.34,1.91-3.74,1.84-7.55-.2-11.13-.17-22.44-.15-33.38,.03-12.97,.07-26.37-.29-39.53-.17-6.41,.97-10.49,3.7-13.22,2.73-2.73,6.79-3.87,13.18-3.7,13.22,.36,26.68,.33,39.71,.3,10.88-.03,22.13-.06,33.2,.15,3.83,.07,6.24-.52,7.59-1.84,1.36-1.35,1.99-3.83,1.97-7.81-.3-55.51-.29-106.87,.02-157.04,.03-4.36-.64-7.05-2.09-8.48-1.42-1.39-3.96-2-8.01-1.91-12.03,.27-24.26,.24-36.08,.22-12.09-.03-24.58-.05-36.85,.24-6.14,.14-10.07-.98-12.72-3.64-2.61-2.61-3.76-6.6-3.61-12.55,.28-11.47,.25-23.16,.22-34.46-.03-12.2-.07-24.82,.29-37.24,.13-4.71-.53-7.64-2.08-9.22-1.57-1.61-4.57-2.34-9.44-2.29-38.93,.32-78.5,.31-116.78,.29-16.84,0-34.25-.02-51.37,0-7.93,0-12.71,.02-15.59-2.87-2.89-2.9-2.88-7.68-2.85-15.61,.03-7.49,0-15.11-.04-22.49-.07-15.34-.14-31.2,.33-46.81,.14-4.62-.51-7.51-2.05-9.08-1.59-1.63-4.55-2.35-9.58-2.33-61.36,.25-123.74,.25-184.07,.25-26.8,0-54.5,0-81.75,.02h-.2c-9.08,0-13.63,.01-16.5-2.85-2.88-2.88-2.87-7.52-2.86-16.76v-.18c.03-18.01,.02-36.33,0-54.04-.02-37-.04-75.25,.28-112.88,.04-4.66-.66-7.55-2.21-9.11-1.58-1.59-4.51-2.28-9.51-2.26-89.29,.36-171.79,.35-252.23-.03-5.26-.03-8.35,.73-10.03,2.45-1.62,1.67-2.3,4.74-2.15,9.67,.41,13.08,.38,26.36,.34,39.21-.03,10.67-.06,21.69,.17,32.52,.12,5.63-.99,9.42-3.51,11.95-2.53,2.55-6.38,3.7-12.16,3.61-32.76-.46-61.84-.45-88.93,.03-5.71,.1-9.57-1.03-12.13-3.55-2.68-2.64-3.81-6.52-3.79-12.97,.24-72.92,.26-147.07,.27-218.77,0-21.03,0-42.07,.02-63.1,0-.1,0-.19,0-.29-.01-.35-.03-.82,.05-1.35,.19-1.22,.14-2.7,.1-4.27-.09-2.8-.18-5.7,1-8.21,1.46-3.11,4.49-4.76,9-4.9,3.71-.11,6.41,.75,8.28,2.65,2.93,2.97,2.73,7.4,2.55,11.31-.05,1.14-.1,2.21-.07,3.16,.26,7.88,.2,15.87,.16,23.6-.02,3.24-.05,6.58-.04,9.87,0,3.83,.04,7.74,.07,11.51,.08,8.82,.17,17.93-.2,26.92-.15,3.65,.41,6.07,1.72,7.41,1.37,1.41,3.92,2.03,8.03,1.97,22.58-.36,45.53-.22,67.73-.08l5.27,.03c.6,0,1.23,0,1.86-.02,3.97-.07,8.46-.13,11.39,2.9,1.82,1.89,2.66,4.68,2.48,8.29-.51,10.09-8.71,9.86-13.6,9.72-.74-.02-1.45-.04-2.11-.04h-.98c-23.6,.17-48.01,.34-72.02-.04-3.98-.06-6.46,.53-7.82,1.88-1.33,1.31-1.96,3.79-1.94,7.58,.26,47.22,.27,97.52,.03,158.27-.01,3.91,.59,6.33,1.89,7.61,1.22,1.2,3.42,1.76,6.72,1.69,19.86-.38,40.28-.38,60.68,0,3.44,.07,5.72-.51,6.97-1.75,1.29-1.29,1.87-3.62,1.82-7.35-.15-10.07-.11-20.29-.07-30.18,.05-14.01,.1-28.49-.36-42.7-.21-6.46,.98-10.77,3.75-13.54,2.82-2.83,7.14-4,14.01-3.78,10.96,.34,22.13,.28,32.94,.22,11.89-.06,24.19-.13,36.29,.33,5.13,.2,8.35-.53,10.11-2.28,1.82-1.8,2.55-5.11,2.37-10.73-.57-18.31-.42-36.92-.27-54.92,.04-5.21,.09-10.43,.11-15.63,0-.47,0-.96,0-1.44-.03-3.8-.07-8.1,2.82-10.99,1.77-1.77,4.38-2.65,7.73-2.63,3.32,.03,5.88,.94,7.62,2.72,2.83,2.89,2.78,7.13,2.73,10.86,0,.55-.01,1.09-.01,1.63,.02,3.52,.04,7.05,.07,10.57,.13,20.46,.26,41.62-.14,62.43-.08,4.21,.54,6.84,1.95,8.27,1.42,1.43,4.02,2.09,8.21,2.06,53.31-.35,106.15-.35,157.04,0,3.89,.02,6.46-.62,7.83-1.99,1.44-1.44,2.07-4.11,2.04-8.65-.13-24.26-.13-48.92-.13-72.76,0-31.66,0-64.4-.31-96.59-.07-7.16,1.11-11.43,3.94-14.28,2.79-2.82,7.09-4.06,13.92-4.03,60.37,.21,121.75,.25,181.11,.29,60.18,.03,122.4,.07,183.6,.3,6.08,0,9.59-.81,11.41-2.7,1.75-1.82,2.45-5.16,2.22-10.5-.91-21.07-.54-42.5-.18-63.23l.06-3.68c.02-1.04-.08-2.25-.18-3.54-.33-4.14-.7-8.83,2.31-11.99,1.91-2,4.71-2.92,8.59-2.8,3.65,.11,6.4,1.19,8.17,3.19,2.87,3.26,2.43,7.88,2.04,11.96-.13,1.37-.25,2.66-.23,3.75,.47,25.84,.48,48.52,.02,69.33-.09,4.04,.51,6.58,1.9,7.99,1.42,1.45,4.12,2.11,8.48,2.1,89.91-.27,173.22-.27,254.69,.02h.15c4.51,0,7.3-.71,8.78-2.22,1.47-1.51,2.11-4.24,2.01-8.58-.31-12.69-.29-25.59-.27-38.06,.02-11.44,.04-23.27-.2-34.88-.12-5.67,1-9.49,3.52-12.02,2.53-2.54,6.37-3.68,12.1-3.59,18.85,.3,38.04,.3,56.59,.3,10.61,0,21.59,0,32.39,.06,.48,0,.97,0,1.47,0,3.79-.03,8.08-.07,10.97,2.81,1.77,1.77,2.66,4.36,2.64,7.71-.02,3.32-.93,5.89-2.71,7.63-2.89,2.84-7.13,2.79-10.88,2.74-.54,0-1.09-.01-1.61-.01-3.54,.02-7.09,.04-10.63,.07-20.44,.13-41.57,.26-62.37-.14-4.22-.08-6.85,.54-8.28,1.95-1.43,1.42-2.09,4.02-2.06,8.2,.35,53.22,.35,106.05,0,157.04-.03,3.96,.64,6.56,2.03,7.94,1.46,1.44,4.09,2.04,8.56,1.95,11.13-.21,22.45-.19,33.39-.16,12.56,.03,25.54,.06,38.29-.27,6.52-.17,10.65,.96,13.39,3.68,2.68,2.67,3.87,6.79,3.74,12.97-.64,29.81-.64,58.88,0,86.41,.15,6.55-.99,10.7-3.71,13.48-2.75,2.79-7,4.02-13.8,4-69.3-.33-139.78-.33-207.92-.32-18.88,0-37.76,0-56.63,0-7.26,0-12.07,0-13.51,1.46-1.46,1.47-1.46,6.07-1.46,13.7,0,7.41,0,14.82,0,22.23,0,15,.02,30.52-.07,45.78,0,.54,0,1.09,0,1.65,.05,3.73,.1,7.96-2.72,10.85-1.74,1.78-4.3,2.69-7.62,2.72-3.37,.03-5.96-.85-7.74-2.62-2.89-2.89-2.85-7.2-2.82-11,0-.48,0-.96,0-1.42-.05-10.1-.03-20.37-.02-30.29,.02-18.83,.05-38.31-.36-57.44-.13-6.33,.99-10.36,3.64-13.06,2.67-2.72,6.71-3.9,13.13-3.88,69.31,.31,139.79,.31,207.95,.31,18.87,0,37.74,0,56.61,0,7.87,0,12.62,0,14.15-1.53,1.53-1.53,1.53-6.28,1.54-14.15,0-5.17-.04-10.43-.09-15.52-.1-11.56-.21-23.51,.27-35.27,.2-4.84-.45-7.85-2.05-9.47-1.6-1.62-4.54-2.3-9.26-2.16-12.62,.38-25.44,.34-37.83,.31-11.11-.03-22.6-.07-33.89,.2-6.17,.15-10.11-.98-12.78-3.64-2.61-2.62-3.75-6.59-3.6-12.51,.45-17.35,.39-35.02,.33-52.11-.02-5.68-.04-11.36-.04-17.05,0-6.77,0-11.25-1.31-12.57-1.3-1.32-5.73-1.32-12.45-1.32-140.24-.01-280.49-.01-420.74-.01h-100.98c-11.29,0-22.76,.03-33.86,.05-29.43,.06-59.86,.12-89.8-.25-5.48-.07-8.68,.68-10.36,2.43-1.62,1.68-2.26,4.67-2.03,9.41,.93,19.4,.93,36.87-.03,53.41-.3,5.21,.36,8.49,2.09,10.31,1.82,1.93,5.26,2.75,11.46,2.75h.17c121.74-.29,245.51-.27,365.21-.25,31.15,0,62.3,.01,93.46,.01h22.3c25.92,0,52.72,0,79.08,.02,4.24,0,7.8,.1,11.4,.53,4.93,.6,7.88,3.98,8.08,9.3,.24,6.11-2.75,9.98-8.22,10.63-4.07,.47-8.13,.52-12.63,.52-18.95,0-37.89,.02-56.84,.03-67.28,.05-136.85,.1-205.27-.27-6.02-.03-9.5,.8-11.32,2.68-1.76,1.82-2.48,5.18-2.25,10.58,.55,13.47,.49,27.16,.43,40.41-.04,9.87-.09,20.08,.12,30.1,.12,5.73-1,9.59-3.54,12.13-2.53,2.53-6.35,3.66-12.02,3.55-12.65-.26-25.54-.24-38-.23-11.85,0-24.11,.02-36.17-.2-3.91-.07-6.35,.53-7.7,1.88-1.36,1.36-1.96,3.8-1.89,7.71,.38,23.09,.23,46.55,.07,69.25l-.02,3.75c0,.65,0,1.33,.03,2.05,.08,3.9,.18,8.31-2.79,11.26-1.88,1.86-4.55,2.71-8.18,2.6-10.26-.32-10.06-8.61-9.94-13.56,.02-.7,.03-1.36,.03-1.99-.07-11.39-.08-22.96-.08-34.15,0-17.98,0-36.57-.3-54.83-.09-5.4,1.03-9.07,3.51-11.55,3.31-3.3,8.46-3.64,12.58-3.57,11.7,.21,23.62,.2,35.14,.18,12.39-.01,25.2-.03,37.8,.23,4.3,.09,6.97-.55,8.41-2,1.4-1.41,2.03-4.06,1.92-8.1-.49-17.39-.5-36.44-.03-58.23,.09-4.01-.5-6.5-1.83-7.87-1.3-1.32-3.74-1.96-7.45-1.96h-.09c-85.09,.23-171.61,.24-257.17,0-3.77,0-6.13,.6-7.45,1.92-1.34,1.34-1.95,3.86-1.95,7.92,.23,93.2,.22,176.91-.03,255.93-.01,4.27,.66,6.91,2.12,8.33,1.43,1.4,4.02,1.99,8.15,1.87,21.8-.62,39.53-.6,55.8,.06,4.97,.2,8.08-.46,9.77-2.1,1.72-1.66,2.49-4.83,2.43-9.97-.39-36.26-.33-73.13-.27-108.78,.02-12.98,.04-26.4,.04-39.61,0-1.73-.05-3.51-.1-5.24-.11-4.04-.23-8.22,.26-12.36,.16-1.33,.03-3.01-.11-4.78-.31-3.98-.66-8.48,2.22-11.55,1.88-2,4.69-2.94,8.62-2.88,3.64,.06,6.38,1.1,8.16,3.09,2.93,3.29,2.46,8.03,2.05,12.21-.13,1.33-.26,2.59-.25,3.65,.21,40.14,.19,80.95,.18,120.41,0,14.27,0,28.53,0,42.8,0,7.23,0,12.01,1.46,13.44,1.48,1.46,6.37,1.46,13.77,1.45,13.5,0,27,0,40.51,.02,41.01,.03,83.43,.07,125.13-.36,6.61-.06,10.8,1.16,13.55,3.97,2.75,2.8,3.88,7.06,3.68,13.81-.37,12.44-.33,25.13-.29,37.4,.04,10.83,.07,22.03-.17,33.05-.11,4.84,.55,7.69,2.12,9.24,1.48,1.46,4.21,2.11,8.35,1.97,17.05-.58,35.55-.6,58.25-.05,3.7,.09,6.13-.5,7.45-1.79,1.38-1.36,2.01-3.88,1.99-7.95-.26-49.89-.26-101.66-.02-158.27,.01-3.67-.58-5.97-1.86-7.24-1.25-1.24-3.56-1.82-7.06-1.77-24.18,.32-48.76,.18-72.53,.04h-1.69c-.57-.01-1.16,0-1.75,0-5,.08-13.37,.22-13.58-10.2-.07-3.38,.79-6,2.56-7.8,2.89-2.93,7.25-2.91,11.1-2.88,.43,0,.86,0,1.29,0,5.83-.03,11.77-.09,17.52-.15,17.39-.18,35.38-.36,53.06,.36,5.44,.23,8.84-.53,10.68-2.36,1.89-1.88,2.63-5.37,2.42-11.32-.66-18.42-.47-37.14-.29-55.25,.05-4.7,.1-9.4,.13-14.09,0-.65-.01-1.33-.03-2.05-.13-4.92-.34-13.16,9.83-13.57,3.61-.15,6.39,.71,8.27,2.55,3.01,2.95,2.91,7.44,2.82,11.39-.01,.64-.03,1.27-.03,1.88,.06,62.46,.07,125.96,.07,187.37,0,26.14,0,52.29,0,78.44,0,7.08,0,11.75,1.39,13.15,1.37,1.39,6,1.39,12.97,1.39,5.48,0,10.96,.01,16.43,.03,17.29,.03,35.18,.08,52.74-.31,5.72-.12,9.57,1,12.11,3.54,2.54,2.54,3.67,6.36,3.55,12.05-.25,12.62-.23,25.46-.23,37.88,.01,11.89,.03,24.18-.19,36.28-.07,3.9,.53,6.34,1.88,7.69,1.36,1.36,3.81,1.95,7.72,1.89,11.02-.2,22.22-.17,33.05-.15,13.07,.03,26.59,.07,39.86-.3,6.24-.17,10.23,.93,12.94,3.58,2.74,2.68,3.94,6.79,3.9,13.32-.44,68.16-.43,128.81,.04,185.4,.05,6.55-1.17,10.7-3.97,13.44-2.83,2.78-6.99,3.88-13.9,3.69-13.2-.37-26.65-.33-39.65-.3-10.49,.03-21.34,.06-32.02-.12-4.11-.07-6.66,.54-8.03,1.92-1.31,1.32-1.9,3.74-1.81,7.39,.47,19.67,.47,39.67,0,59.46-.09,3.68,.5,6.11,1.82,7.43,1.37,1.38,3.91,1.99,7.99,1.93,24.08-.37,48.55-.2,72.22-.04h.77c.66,.01,1.35,0,2.08-.03,4.91-.13,13.13-.36,13.59,9.78,.17,3.61-.69,6.4-2.52,8.28-2.95,3.03-7.45,2.94-11.42,2.86-.63-.01-1.25-.03-1.85-.03-10.28,.02-20.56,.04-30.84,.07-45.01,.11-91.55,.22-137.32-.26-5.98-.06-9.47,.75-11.3,2.64-1.77,1.83-2.49,5.2-2.27,10.63,.56,13.48,.49,27.18,.43,40.42-.04,9.87-.09,20.07,.12,30.08,.12,5.72-1,9.57-3.52,12.11-2.52,2.54-6.34,3.68-12.02,3.58-18.77-.3-37.86-.3-56.33-.3-10.7,0-21.76,0-32.65-.06-.52,0-1.04,0-1.57,0-3.76,.04-8.02,.09-10.9-2.76-1.78-1.75-2.68-4.33-2.69-7.66,0-3.34,.89-5.93,2.66-7.69,2.89-2.86,7.17-2.82,10.95-2.78,.51,0,1.02,.01,1.51,0,3.67-.02,7.33-.04,11-.06,20.32-.12,41.33-.24,62,.14,4.37,.08,7.08-.56,8.52-2.02,1.39-1.4,2.01-4.02,1.9-7.99-.56-19.48-.56-39.08,0-58.25,.12-3.92-.5-6.5-1.89-7.9-1.45-1.46-4.19-2.1-8.62-2.01-14.92,.3-30.08,.26-44.73,.23-8.05-.02-16.36-.04-24.54,0-8.78,.03-13.61,.06-16.53-2.86-2.88-2.88-2.87-7.51-2.84-15.91,.03-8.26,.02-16.66,0-24.79-.03-14.98-.06-30.47,.2-45.71,.07-4.1-.54-6.65-1.92-8.02-1.32-1.31-3.74-1.91-7.41-1.82-19.71,.47-39.72,.47-59.46,0-3.62-.09-6.01,.5-7.32,1.78-1.38,1.35-2.02,3.92-2.01,8.09,.23,93.6,.22,177.31-.03,255.93-.01,4.22,.65,6.84,2.09,8.26,1.42,1.4,4.04,2.02,8.21,1.93,23.95-.48,48.26-.26,71.78-.06,.77,0,1.62-.03,2.5-.06,3.79-.15,8.09-.32,11.06,2.51,1.85,1.76,2.8,4.4,2.84,7.85,.03,3.51-.89,6.19-2.73,8-2.98,2.9-7.37,2.75-11.23,2.6-.8-.03-1.56-.04-2.27-.06-65.9,.08-132.9,.08-197.7,.09-22.29,0-44.58,0-66.87,0-7.45,0-12.38,0-13.87,1.45-1.46,1.42-1.46,6.16-1.46,13.34,0,5.16,0,10.32-.01,15.48-.02,17.61-.04,35.81,.27,53.7,.1,5.53-1,9.25-3.47,11.73-2.43,2.44-6.01,3.55-11.27,3.48-19.39-.26-39.12-.27-58.2-.28-10.5,0-21.35-.02-32.03-.06h-.89s-.15,0-.15,0c-3.91,0-8.3-.03-11.17-3-1.78-1.84-2.63-4.51-2.52-7.96,.32-9.94,8.52-9.92,13.42-9.92h.94c4.6-.02,9.19-.05,13.78-.07,19.41-.11,39.48-.23,59.23,.16,4.85,.1,7.7-.56,9.25-2.13,1.46-1.48,2.1-4.21,1.96-8.35-.58-17.07-.6-35.57-.05-58.25,.09-3.69-.5-6.13-1.79-7.45-1.35-1.38-3.89-2.02-7.95-1.99-56.62,.29-107.99,.28-157.04-.03-4.21-.02-6.84,.62-8.26,2.03-1.41,1.41-2.05,4.02-2.03,8.2,.32,48.34,.33,99.71,.03,157.04-.02,4.03,.59,6.53,1.93,7.87,1.31,1.32,3.67,1.93,7.42,1.93h.09c85.96-.23,172.48-.23,257.16,0h.09c3.67,0,6.09-.63,7.38-1.95,1.34-1.36,1.93-3.88,1.86-7.93-.18-10.63-.15-21.43-.12-31.88,.03-13.05,.07-26.54-.3-39.79-.19-6.86,.9-11,3.67-13.83,2.7-2.77,6.79-4.01,13.22-4.01h.27c69.95,.37,141.07,.36,209.85,.34,18.65,0,37.29,0,55.94,0,6.85,0,11.39,0,12.73-1.3,1.31-1.28,1.32-5.66,1.33-12.29,.02-8.36,0-16.86,0-25.08,0-14.48-.02-29.44,.09-44.17,0-.63,0-1.28-.03-1.97-.11-4.96-.3-13.26,9.97-13.55,3.62-.1,6.3,.75,8.18,2.62,2.96,2.95,2.86,7.35,2.77,11.24-.01,.73-.03,1.41-.03,2.07,.07,10.93,.07,22.04,.06,32.78-.01,18.02-.02,36.65,.33,54.96,.11,5.78-1.03,9.67-3.57,12.24-3.35,3.39-8.65,3.79-12.89,3.77-42.49-.3-85.69-.3-127.48-.29-12.72,0-25.44,0-38.17,0-8.01,0-12.85,0-14.41,1.61-1.59,1.65-1.6,6.66-1.6,14.97,0,6.69,0,13.38,0,20.07,0,15.3,.01,31.13-.07,46.7,0,.46,0,.93,0,1.4,.03,3.81,.06,8.13-2.84,11.02-1.78,1.77-4.37,2.65-7.75,2.61-3.31-.04-5.86-.96-7.6-2.74-2.82-2.89-2.76-7.12-2.71-10.85,0-.56,.02-1.12,.01-1.66-.02-3.49-.04-6.99-.07-10.48-.13-20.49-.26-41.68,.14-62.52,.08-4.28-.56-6.95-2.02-8.39-1.42-1.4-4.08-2.02-8.12-1.91-20.82,.62-39.07,.6-55.8-.04-5.19-.2-8.4,.5-10.1,2.19-1.69,1.69-2.4,4.76-2.23,9.69,.43,12.4,.38,25,.33,37.18-.04,10.93-.09,22.22,.21,33.3,.18,6.53-.96,10.66-3.71,13.4-2.69,2.68-6.82,3.85-13.02,3.67-12.46-.36-25.15-.33-37.43-.29-11.22,.03-22.82,.07-34.25-.2-4.48-.11-7.27,.54-8.79,2.03-1.52,1.5-2.22,4.28-2.19,8.74,.46,60.06,.44,109.18-.07,154.59-.05,4.8,.67,7.79,2.29,9.41,1.67,1.69,4.74,2.38,10.27,2.37,62.71-.25,126.47-.25,188.14-.26,25.89,0,51.78,0,77.67-.02,8.05,0,12.9,0,15.82,2.91,2.77,2.77,2.88,7.16,2.86,15.32-.03,11-.04,22.19-.05,33,0,17.14-.02,34.87-.13,52.31,0,.65,0,1.33,.03,2.05,.09,3.89,.19,8.31-2.78,11.25-1.88,1.86-4.55,2.72-8.18,2.61-10.27-.3-10.07-8.6-9.96-13.55,.01-.69,.03-1.35,.03-1.97l-.05-7.72c-.15-20.99-.3-42.7,.13-64.05,.1-4.75-.54-7.56-2.06-9.1-1.46-1.48-4.23-2.18-8.45-2.15-50.3,.41-102.72,.41-155.81,0-4.48-.03-7.25,.66-8.75,2.19-1.49,1.52-2.14,4.31-2.03,8.78,.32,13.39,.3,27,.29,40.15-.01,10.76-.03,21.88,.14,32.8,.06,3.91-.28,8.8-3.48,12.02-2.37,2.37-5.96,3.5-11,3.42-21.61-.29-43.59-.29-64.86-.29-8.45,0-16.91,0-25.36-.02-.6,0-1.21-.02-1.81-.03l-.71-.02c-3.47-.07-12.7-.26-12.51-10.68,.19-10.15,9.13-10.17,12.94-10.18,6.43-.02,12.96-.06,19.28-.1,18.02-.12,36.64-.24,54.97,.23,4.82,.12,7.81-.57,9.41-2.19,1.59-1.61,2.24-4.57,2.05-9.31-.73-18.5-.73-36.87,0-54.59,.21-4.96-.45-8.05-2.07-9.74-1.66-1.72-4.82-2.52-9.98-2.48-61.32,.29-123.66,.28-183.95,.27-26.43,0-53.75,0-80.62,.01h-.46c-9.4,0-14.11,.01-17.03-2.92-2.92-2.93-2.9-7.64-2.86-17.03v-.27c.04-8.45,.01-17.04,0-25.35-.04-14.39-.08-29.28,.2-43.92,.07-3.87-.52-6.29-1.85-7.65-1.35-1.36-3.79-2-7.75-1.96-61.57,.33-111.47,.31-157.04-.06-4.12-.03-6.84,.65-8.28,2.09-1.54,1.53-2.18,4.3-2.15,9.26,.23,38.05,.22,76.74,.22,114.15,0,17.7,0,36,.02,53.99,0,7.99,.02,12.82-2.89,15.73-2.89,2.89-7.88,2.88-15.44,2.87-6.62-.01-13.25-.04-19.87-.07-21.43-.09-43.59-.18-65.36,.3-6.23,.13-10.2-.99-12.9-3.65-2.72-2.68-3.91-6.79-3.86-13.33,.2-25.07,.2-50.58,.2-75.23,0-30.45,0-61.94,.38-92.91,.07-5.68-.77-9.17-2.63-10.98-1.86-1.81-5.23-2.52-10.94-2.29-11.41,.45-23,.37-34.21,.3-11.09-.07-22.55-.15-33.77,.29-6.73,.27-11.2-.94-14.06-3.79-2.93-2.91-4.13-7.42-3.88-14.6,.43-13.04,.38-26.34,.33-39.21-.04-10.23-.09-20.8,.12-31.22,.09-4.46-.52-7.1-1.95-8.55-1.38-1.39-3.97-2.08-7.94-2.03-57.21,.4-108.58,.39-157.05-.03-3.96-.05-6.58,.63-7.99,2.04-1.53,1.52-2.15,4.31-2.12,9.62,.22,45.08,.17,90.92,.13,135.25-.01,10.14-.02,20.29-.03,30.43,0,4.33-.06,8.55-.65,12.69-.68,4.77-4.24,7.52-9.77,7.55-5.53,.04-9.21-2.75-9.88-7.45-.67-4.76-.68-9.62-.68-13.91-.02-80.09-.02-160.17-.03-240.25,0-39.42,0-78.85,0-118.28,0-7.43,0-12.34-1.45-13.83-1.42-1.46-5.92-1.46-13.38-1.47-7.44,0-14.88,0-22.32,0-14.97,0-30.46,.02-45.7-.09-.62,0-1.27,0-1.96,.03-4.97,.11-13.27,.3-13.55-9.99-.1-3.57,.79-6.31,2.62-8.16,2.94-2.95,7.35-2.85,11.23-2.76,.73,.02,1.42,.03,2.09,.03l3.37-.02c22.82-.16,46.42-.32,69.63,.07,3.82,.06,6.22-.53,7.56-1.85,1.36-1.35,1.99-3.84,1.96-7.83-.29-55.83-.29-107.2,.03-157.04,.03-4.33-.63-7.01-2.08-8.43-1.42-1.4-3.98-2.01-8.05-1.93-21.02,.43-42.38,.28-63.04,.14-3.32-.03-6.64-.05-9.96-.07-.6,0-1.2,0-1.82,.02-4.97,.09-13.29,.24-13.58-10.12-.09-3.39,.76-6.03,2.53-7.84,2.89-2.96,7.29-2.95,11.17-2.93,.4,0,.8,0,1.19,0,10.6-.05,21.39-.05,31.81-.05,19.15,0,38.95,0,58.4-.31,4.97-.08,8.54,1.01,10.9,3.34,3.36,3.32,3.64,8.58,3.63,13.26-.17,102.58-.19,206.88-.21,307.75l-.02,55.71c0,7.96,0,12.76,1.53,14.32,1.51,1.54,6.2,1.54,13.98,1.54,49.15,.02,98.23,.02,145.88,0,7.72,0,12.37,0,13.86-1.54,1.52-1.57,1.52-6.41,1.53-14.44,0-6.71,0-13.43,0-20.14-.01-15.28-.03-31.09,.09-46.64,0-.64-.01-1.32-.03-2.04-.13-4.93-.33-13.18,9.86-13.56,3.6-.13,6.38,.73,8.25,2.57,3,2.95,2.9,7.42,2.81,11.36-.01,.65-.03,1.29-.03,1.92,.02,10.18,.04,20.37,.07,30.55,.11,45.1,.23,91.74-.26,137.61-.06,5.94,.75,9.41,2.65,11.24,1.83,1.78,5.22,2.49,10.68,2.27,12.43-.52,25.06-.45,37.27-.38,10.49,.06,21.34,.12,31.97-.2,6.28-.18,10.3,.92,13.02,3.58,2.75,2.68,3.94,6.77,3.89,13.25-.21,25.53-.22,51.5-.22,76.61,0,30,0,61.02-.37,91.53-.07,5.93,.76,9.39,2.68,11.23,1.85,1.77,5.26,2.46,10.71,2.16,15.78-.86,32.74-.87,53.39-.06,4.72,.19,7.66-.45,9.26-2,1.62-1.57,2.36-4.57,2.32-9.42-.33-38.96-.31-78.58-.3-116.89,0-16.8,.02-34.18,0-51.27,0-7.97-.02-12.78,2.88-15.67,2.9-2.89,7.65-2.88,15.52-2.85,7.85,.03,15.83,0,23.55-.02,15.39-.04,31.31-.08,46.97,.26,4.23,.1,6.87-.54,8.31-1.99,1.43-1.44,2.04-4.05,1.92-8.2-.63-21.4-.61-39.13,.05-55.8,.2-5.03-.47-8.16-2.11-9.84-1.66-1.71-4.8-2.51-9.88-2.44-38.22,.37-77.08,.34-114.65,.31-17.13-.01-34.85-.03-52.27,0-8.67,0-13.44,.02-16.33-2.87-2.87-2.87-2.87-7.56-2.85-16.08,.02-17.36,.01-35.02,0-52.1-.02-37.63-.05-76.55,.29-114.82,.05-5.19-.68-8.25-2.35-9.92-1.65-1.64-4.75-2.38-9.75-2.33-47.73,.49-97.89,.5-153.35,.03-5.12-.04-8.12,.66-9.71,2.29-1.54,1.57-2.19,4.42-2.06,8.98,.56,19.52,.4,39.37,.23,58.56-.04,4.41-.07,8.82-.1,13.24,0,.62,0,1.26,.03,1.94,.11,4.97,.3,13.28-10,13.55-3.58,.1-6.33-.8-8.18-2.65-2.96-2.96-2.85-7.39-2.75-11.3,.02-.71,.03-1.38,.03-2.02-.08-49.22-.07-99.25-.07-147.64,0-12.6,0-25.2,0-37.8,0-1.26,.03-2.5,.06-3.77,.09-3.79,.29-12.66,10.43-12.66h.04c10.37,.03,10.39,9.28,10.4,12.77,.02,6.49,.06,13.09,.1,19.47,.11,17.95,.23,36.51-.22,54.77-.12,4.82,.56,7.81,2.12,9.39,1.57,1.59,4.51,2.31,9.27,2.27,52.03-.48,104.04-.48,154.58,0,4.64,.04,7.53-.67,9.09-2.25,1.58-1.61,2.23-4.56,2.11-9.58-.46-19.08-.33-38.48-.21-57.24,.03-4.85,.07-9.7,.09-14.54,0-.44,0-.89,0-1.34-.03-3.83-.06-8.17,2.86-11.06,1.79-1.77,4.4-2.65,7.77-2.59,3.31,.05,5.86,.99,7.6,2.77,2.82,2.91,2.74,7.15,2.68,10.9,0,.55-.02,1.09-.02,1.63,.06,63.81,.06,128.69,.07,191.44,0,24.78,0,49.57,0,74.36,0,7.33,0,12.18,1.46,13.64,1.45,1.46,6.27,1.46,13.57,1.46,14.04,0,28.32-.01,42.13-.03,35.23-.04,71.66-.1,107.49,.24,5.39,.04,8.55-.7,10.23-2.42,1.62-1.66,2.3-4.68,2.14-9.5-.71-20.9-.45-42.15-.2-62.7l.08-6.64c.01-.9-.04-1.9-.1-2.95-.22-3.99-.47-8.5,2.5-11.55,1.85-1.9,4.65-2.82,8.32-2.71,3.55,.1,6.25,1.13,8,3.08,2.84,3.15,2.51,7.62,2.21,11.55-.08,1.13-.16,2.19-.16,3.11v3.16c.21,53.68,.42,109.18-.11,163.77-.05,5.36,.7,8.52,2.45,10.27,1.76,1.75,4.97,2.5,10.44,2.45,40.01-.39,80.69-.33,120.04-.27,13.75,.02,27.96,.04,41.94,.04,4.12,0,7.78,.04,11.18,.12,7.62,.17,11.51,3.63,11.56,10.27,.03,4.71-1.92,10.35-11.41,10.47-8.48,.11-16.88,.13-24.75,.13-4.78,0-9.57,.03-14.35,.05-12.73,.06-25.9,.12-38.87-.14-3.78-.08-6.14,.5-7.44,1.79-1.24,1.24-1.82,3.5-1.75,6.9,.39,20.09,.39,40.51,0,60.67-.06,3.37,.5,5.6,1.71,6.83,1.28,1.3,3.66,1.89,7.49,1.88,58.79-.24,110.57-.23,158.27,.03,3.85,.03,6.28-.59,7.61-1.92,1.34-1.34,1.95-3.81,1.93-7.77-.33-63.28-.31-111.72,.07-157.04,.03-4.07-.65-6.75-2.08-8.18-1.52-1.53-4.33-2.18-9.37-2.15-37.95,.22-76.53,.21-113.84,.22-17.8,0-36.2,0-54.31,.02-7.95,0-12.74,.01-15.63-2.87-2.88-2.88-2.88-7.65-2.87-15.56,.02-16.69,0-33.67,0-50.09-.03-38.29-.06-77.88,.33-116.83,.06-5.4-.7-8.6-2.45-10.35-1.76-1.75-4.95-2.5-10.37-2.45-48.26,.53-98.01,.54-152.11,.03-5.39-.06-8.53,.7-10.22,2.43-1.62,1.67-2.29,4.7-2.09,9.53,.87,21.98,.83,41.87-.12,60.78-.09,1.75,.25,4.01,.61,6.4,.8,5.3,1.69,11.32-1.69,15.24-1.98,2.29-5.13,3.46-9.36,3.46h-.04c-4.02,0-7.03-1.15-8.94-3.4-3.4-3.98-2.43-10.1-1.58-15.5,.33-2.12,.65-4.13,.64-5.69-.34-136.29-.33-274.86-.31-408.87,0-26.9,0-53.81,0-80.71,0-6.61-.03-13.33-.07-19.84-.07-15.8-.15-32.14,.22-48.22,.1-4.04-.54-6.68-1.95-8.09-1.44-1.45-4.11-2.08-8.41-2-20.75,.39-41.84,.27-62.24,.14-3.59-.02-7.18-.04-10.77-.06-.52,0-1.05,0-1.58,0-3.75,.04-8.01,.1-10.9-2.75-1.78-1.75-2.68-4.32-2.69-7.65,0-3.35,.88-5.93,2.66-7.69,2.89-2.87,7.17-2.83,10.95-2.79,.5,0,1.01,0,1.5,0,4.73-.03,9.47-.06,14.2-.1,18.87-.13,38.38-.27,57.58,.22,4.94,.13,7.99-.56,9.59-2.17,1.58-1.59,2.25-4.49,2.1-9.12-.36-11.81-.31-23.8-.26-35.4,.05-11.5,.1-23.4-.26-35.06-.2-6.66,.92-10.86,3.65-13.66,2.75-2.82,6.97-4.05,13.66-4.03,70.3,.35,141.79,.34,210.92,.33,18.29,0,36.58,0,54.87,0,6.78,0,11.27,0,12.6-1.31,1.31-1.3,1.32-5.73,1.32-12.42,0-14.71,0-29.67-.03-44.13-.04-34.98-.09-71.14,.24-106.72,.05-5.5-.71-8.71-2.45-10.39-1.66-1.61-4.64-2.25-9.37-2.04-16.59,.76-34.85,.78-55.83,.05-4.21-.15-6.98,.5-8.48,1.98-1.56,1.53-2.23,4.43-2.12,9.11,.26,11.25,.22,22.69,.19,33.74-.04,12.04-.08,24.49,.26,36.71,.14,4.86-.19,10.31-3.64,13.86-2.73,2.8-6.89,4.04-13.43,4.03-153.84-.3-310.25-.31-461.52-.33-32.84,0-65.68,0-98.51,0-8.32,0-13.34,0-14.99,1.59-1.62,1.56-1.62,6.39-1.62,14.4,0,13.74,.03,27.71,.05,41.22,.07,35.12,.13,71.44-.3,107.16-.07,5.34,.73,8.64,2.52,10.38,1.79,1.75,5,2.45,10.4,2.26,12.26-.42,24.72-.37,36.77-.32,10.65,.04,21.66,.09,32.47-.2,4.78-.13,10.14,.22,13.63,3.69,2.67,2.66,3.84,6.71,3.7,12.76-.41,17.59-.39,35.51-.37,52.84,.01,11.03,.03,22.43-.07,33.65,0,.82,.04,1.72,.08,2.67,.19,3.79,.4,8.09-2.39,11.09-1.72,1.84-4.29,2.82-7.66,2.89-3.76,.09-6.52-.81-8.4-2.75-2.96-3.04-2.73-7.53-2.53-11.49,.05-1.03,.1-2,.1-2.88l-.08-6.58c-.24-20.57-.49-41.84,.19-62.76,.16-4.88-.52-7.93-2.14-9.6-1.68-1.72-4.79-2.48-10.11-2.45-62.52,.28-126.08,.28-187.55,.28-25.65,0-52.17,0-78.26,.02-8.52,0-13.22,0-16.09-2.86-2.88-2.88-2.88-7.65-2.87-16.31,.05-66.81,.06-134.75,.07-200.44,0-23.85,0-47.7,0-71.55,0-1.08,0-2.16-.02-3.24-.02-2.61-.04-5.31,.07-7.99,.02-.62,.03-1.25,.04-1.89,.07-4.88,.2-13.03,10.32-13.03h.26c4.56,.07,7.65,1.77,9.17,5.08,1.2,2.61,1.16,5.74,1.12,8.5,0,.57-.02,1.14-.01,1.69,.02,3.46,.04,6.92,.06,10.39,.13,20.52,.26,41.74-.14,62.62-.08,4.24,.55,6.88,1.99,8.31,1.43,1.43,4.03,2.05,8.18,1.96,11.94-.26,24.07-.23,35.8-.21,12.18,.02,24.77,.05,37.13-.25,5.97-.14,9.97,1,12.58,3.6,2.66,2.64,3.79,6.54,3.68,12.65-.34,18.18-.33,36.69-.33,54.58,0,10.87,0,22.1-.06,33.16,0,.66,.01,1.35,.03,2.09,.13,4.9,.36,13.12-9.76,13.6-3.66,.17-6.37-.64-8.28-2.5-3.02-2.93-2.95-7.41-2.88-11.36,0-.64,.02-1.27,.02-1.89l-.03-4.94c-.14-22.3-.28-45.37,.08-68.06,.06-4.03-.55-6.54-1.92-7.91-1.33-1.32-3.79-1.92-7.52-1.83-20.03,.47-40.04,.47-59.46,0-3.57-.09-5.93,.49-7.24,1.76-1.38,1.36-2.01,3.96-1.99,8.19,.29,60.07,.28,109.97-.04,157.04-.03,4.08,.61,6.63,2.01,8.04,1.42,1.42,4.1,2.07,8.42,2.04,56.1-.34,107.06-.33,155.81,.03,4.44,.03,7.22-.65,8.72-2.14,1.5-1.49,2.18-4.28,2.15-8.78-.18-25.43-.18-51.27-.18-76.28,0-30.51,0-62.06-.33-93.08-.07-7.05,1.19-11.46,4.1-14.29,2.88-2.82,7.25-3.97,14.15-3.74,13.4,.46,27.06,.4,40.28,.34,10.28-.04,20.91-.09,31.38,.11,3.76,.07,6.23-.54,7.55-1.86,1.36-1.36,1.97-3.86,1.91-7.86-.36-22.73-.22-45.83-.08-68.17l.03-4.82c0-.62,0-1.26-.02-1.91-.07-3.94-.15-8.41,2.87-11.35,1.91-1.85,4.61-2.67,8.27-2.51,10.14,.46,9.91,8.68,9.78,13.58-.02,.73-.04,1.42-.03,2.08v.7c.17,23.69,.34,48.19-.03,72.3-.06,4.02,.53,6.53,1.88,7.88,1.31,1.32,3.78,1.96,7.52,1.93,52.62-.3,105.87-.3,158.27,0,3.68,.03,6.1-.6,7.4-1.89,1.35-1.34,1.97-3.88,1.96-7.98-.23-93.85-.22-177.57,.03-255.93,.01-4.15-.64-6.74-2.05-8.15-1.41-1.41-4.05-2.06-8.31-2.02-49.82,.31-101.19,.32-157.04,.03-4.02-.02-6.52,.61-7.87,1.98-1.3,1.33-1.89,3.79-1.81,7.53,.54,22.91,.53,41.42-.05,58.25-.14,4.1,.5,6.81,1.95,8.28,1.55,1.57,4.42,2.22,9.32,2.12,11.71-.25,23.6-.23,35.1-.21,12,.03,24.41,.05,36.59-.24,6.18-.15,10.12,.96,12.77,3.61,2.61,2.59,3.77,6.56,3.66,12.47-.35,18.38-.33,37.08-.33,55.17,0,10.67,0,21.71-.06,32.57,0,.65,0,1.32,.02,2,.08,3.91,.17,8.35-2.82,11.29-1.89,1.86-4.58,2.7-8.22,2.57-10.2-.37-10-8.61-9.88-13.54,.02-.72,.03-1.4,.03-2.04-.1-10.84-.08-21.85-.07-32.5,0-9.21,.02-18.73-.04-28.09-.02-2.95,0-5.55,.02-7.84,.05-7.08,.09-11.76-1.27-13.11-1.36-1.36-6.09-1.32-13.25-1.25-2.07,.02-4.42,.04-7.04,.03-34.87-.07-70.32-.06-104.6-.05-16.23,0-32.46,.01-48.7,0-3.77,0-7.53-.04-11.19-.13-9.46-.23-11.38-5.86-11.33-10.54,.06-4.61,2.12-10.12,11.66-10.2,10.63-.09,21.44-.1,31.89-.12h2.74c4.01-.01,8.09-.05,12.05-.09,9.86-.1,20.05-.19,30.09,.22,4.03,.17,6.69-.43,8.12-1.82,1.48-1.44,2.14-4.11,2.08-8.4-.33-21.83-.27-44.02-.21-65.47,.02-8.13,.04-16.54,.04-24.81,0-14.04-.01-28.07-.03-42.11-.04-39.69-.09-80.73,.25-121.1,.05-5.4-.7-8.55-2.42-10.24-1.66-1.62-4.68-2.29-9.5-2.13-23.64,.82-48.3,.4-68.12,.07-1.03-.01-2.25,.08-3.53,.18-4.14,.33-8.84,.7-12-2.31-2-1.9-2.92-4.71-2.8-8.58,.11-3.66,1.18-6.41,3.19-8.18,3.26-2.88,7.9-2.43,11.99-2.04,1.36,.13,2.64,.25,3.72,.24,12.46-.19,25.12-.17,37.37-.16,15.3,.01,31.13,.03,46.67-.34,6-.15,10.03,1,12.68,3.61,3.47,3.42,3.91,8.78,3.87,13.58-.2,26.33-.2,53.11-.21,79.01,0,29.21-.02,59.42-.3,89.13-.05,5.61,.7,8.89,2.46,10.64,1.72,1.72,4.92,2.49,10.08,2.43,50.36-.6,101.54-.6,152.12,0,5.17,.06,8.39-.71,10.11-2.43,1.76-1.75,2.52-5.02,2.46-10.62-.37-39.15-.35-78.95-.32-117.45,0-16.21,.02-32.98,0-49.47,0-8.14,.11-12.51,2.88-15.27,2.93-2.93,7.79-2.92,15.85-2.91,17.43,.02,35.15,.02,52.3,0,37.56-.01,76.41-.03,114.62,.28,5.56,.05,8.79-.71,10.47-2.46,1.58-1.64,2.24-4.68,2.02-9.31-.77-16.57-.79-34.31-.05-55.83,.14-4.23-.47-6.89-1.92-8.4-1.53-1.58-4.33-2.28-9.15-2.25-92.1,.31-175.01,.3-253.46-.04-4.8-.02-7.76,.7-9.32,2.26-1.57,1.58-2.25,4.44-2.22,9.3,.33,42.07,.28,84.84,.22,126.21-.02,13.16-.03,26.32-.04,39.48,0,3.61-.05,7.48-.37,11.33-.47,5.66-4.1,8.95-9.94,9.01-5.96,.07-9.7-3.09-10.25-8.66-.39-3.97-.43-7.94-.43-11.36-.01-27.59-.01-55.17-.02-82.76,0-26.81,0-53.62-.01-80.43,0-6.91,0-11.47-1.31-12.83-1.26-1.32-5.61-1.32-12.19-1.32-144.23-.02-294.39-.02-446.31,0-6.68,0-11.09,0-12.38,1.32-1.31,1.33-1.31,5.83-1.31,12.64,0,21.98,0,43.96,.03,65.95,.03,59.84,.08,121.71-.29,182.57-.04,6.01,.8,9.51,2.73,11.35,1.84,1.75,5.21,2.42,10.59,2.12,16.26-.92,33.32-.93,52.17-.03,5.26,.25,8.54-.43,10.32-2.15,1.81-1.75,2.63-5.08,2.57-10.47-.4-38.85-.37-78.35-.34-116.55,.01-16.51,.03-33.58,0-50.37-.01-8-.02-12.82,2.89-15.73,2.77-2.76,7.19-2.88,15.44-2.85,11.48,.03,23.15,.04,34.44,.05,16.67,.01,33.92,.03,50.88,.12,.63,0,1.29,0,1.95-.02,3.94-.07,8.39-.16,11.33,2.85,1.83,1.87,2.68,4.64,2.53,8.25-.42,10.17-8.66,9.95-13.58,9.82-.73-.02-1.41-.04-2.05-.03l-7.97,.06c-20.91,.15-42.53,.31-63.8-.13-4.7-.1-7.61,.58-9.14,2.13-1.47,1.49-2.12,4.25-1.97,8.45,.64,18.87,.64,38.06,0,57.03-.14,4.15,.49,6.89,1.93,8.37,1.53,1.58,4.37,2.27,9.19,2.23,37.97-.24,76.57-.24,113.9-.23,17.78,0,36.17,0,54.25-.02,8.12-.01,13.01-.02,15.94,2.91,2.77,2.76,2.89,7.11,2.88,15.19-.01,6.79-.04,13.57-.07,20.35-.08,21.28-.17,43.28,.28,64.89,.13,6.5-1.03,10.61-3.77,13.33-2.69,2.67-6.83,3.83-13.03,3.65-13.31-.37-26.87-.34-39.98-.3-10.79,.03-21.94,.06-32.92-.14-3.88-.07-6.32,.52-7.67,1.85-1.36,1.34-1.98,3.8-1.96,7.72,.29,54,.29,107.25,0,158.27-.02,3.63,.6,6.02,1.91,7.31,1.38,1.36,3.88,1.95,8.11,1.89,25.51-.38,50.6-.22,71.77-.01,.82,0,1.72-.03,2.68-.08,3.74-.18,7.98-.39,10.99,2.36,1.86,1.7,2.87,4.28,3.01,7.65,.14,3.55-.71,6.29-2.53,8.14-2.94,2.98-7.38,2.88-11.3,2.78-.74-.02-1.44-.03-2.11-.03-12.09,.08-24.37,.09-36.25,.1-17.29,.01-35.17,.03-52.74,.26-5.21,.07-8.78-1.03-11.2-3.47-2.46-2.47-3.57-6.23-3.47-11.81,.31-17.94,.29-36.2,.27-53.85,0-5.11-.01-10.22,0-15.34,0-7.16,0-11.89-1.38-13.32-1.34-1.39-5.9-1.39-12.79-1.4-8.57-.01-17.13,0-25.7,0-14.27,0-29.02,0-43.54-.06-.43,0-.86,0-1.29,0-3.84,.02-8.21,.04-11.1-2.88-1.77-1.79-2.63-4.41-2.57-7.79,.2-10.43,8.58-10.29,13.58-10.21,.59,.01,1.17,.02,1.74,.02,3.39-.02,6.79-.04,10.18-.07,20.59-.13,41.88-.27,62.82,.14,4.18,.08,6.8-.55,8.23-1.98,1.43-1.44,2.06-4.07,1.97-8.27-.25-11.87-.23-23.93-.2-35.59,.02-12.25,.05-24.91-.25-37.33-.14-5.95,1.01-9.94,3.62-12.55,2.65-2.65,6.58-3.78,12.72-3.63,12.27,.29,24.77,.26,36.85,.24,11.82-.03,24.05-.05,36.07,.22,4.07,.09,6.73-.56,8.15-1.97,1.44-1.45,2.06-4.11,1.95-8.37-.53-20.32-.35-40.58-.08-59.44,.05-3.25-.5-5.41-1.66-6.59-1.17-1.19-3.34-1.76-6.63-1.75-54.58,.19-108.65,.19-160.74,0h-.09c-2.98,0-4.97,.54-6.09,1.67-1.21,1.22-1.75,3.46-1.71,7.07,.1,10.24,.09,20.64,.08,30.7-.02,14.25-.04,28.98,.28,43.45,.14,6.19-.99,10.13-3.65,12.79-2.61,2.6-6.57,3.75-12.48,3.61-12.51-.3-25.26-.28-37.58-.25-11.58,.02-23.55,.04-35.34-.2-4.17-.09-6.77,.52-8.19,1.92-1.44,1.41-2.11,4.04-2.11,8.27,.21,186.58,.21,372.52,0,552.63,0,3.92,.66,6.49,2.02,7.85,1.43,1.42,4.1,2.06,8.61,2.03,40.13-.22,80.93-.18,120.39-.16,13.45,.01,26.89,.02,40.34,.02,1.07,0,2.14,0,3.21-.01,2.62-.02,5.33-.04,8.02,.06,.58,.02,1.16,.03,1.76,.04,3.69,.06,7.88,.13,10.63,3,1.73,1.8,2.54,4.32,2.46,7.69-.24,10.44-8.63,10.28-13.65,10.18-.58,0-1.16-.02-1.71-.02-9.96,.02-19.91,.04-29.87,.07-45.73,.1-93.02,.21-139.53-.23-5.42-.05-8.75,.76-10.49,2.54-1.72,1.76-2.44,5.03-2.26,10.28,.61,18.45,.44,37.2,.28,55.33-.04,5.07-.09,10.15-.12,15.23,0,.55,0,1.11,.01,1.68,.06,3.72,.11,7.94-2.7,10.83-1.73,1.78-4.29,2.7-7.59,2.74-3.38,.05-5.98-.83-7.77-2.61-2.91-2.9-2.87-7.25-2.84-11.08,0-.45,0-.89,0-1.33-.07-30.24-.07-60.99-.07-90.72,0-9.32,0-18.64,0-27.96v-124.96c-.04-240.66-.07-489.51-.3-734.26,0-6.53,1.14-10.46,3.82-13.14C6.71,1.19,10.67,.01,16.89,.01h.08C196.94,.3,379.92,.31,556.88,.32h33.72c149.84,0,305.49,.01,469.24,.01s325.84,0,502.48-.01h53.12c120.36,0,244.81,0,367.21-.32h.14c6.49,0,10.6,1.2,13.29,3.89,2.75,2.75,3.93,6.83,3.92,13.65-.15,205.33-.13,414.11-.11,616.01,0,88.9,.01,177.79,0,266.69Z"/><path class="cls-4" d="M1068.76,914.25c0-11.93,.07-23.87-.03-35.8-.04-5.3-2.19-8.25-7.99-9.95-26.96-7.89-45.96-29.76-46.51-60.75-.59-33.79,23.73-61.67,58.82-65.13,32.8-3.23,63.46,20.94,69.04,52.53,6.5,36.81-19.43,69.99-52.35,75.02-4.97,.76-4.71,3.3-4.67,6.7,.25,20.57,3.05,40.9,5.65,61.24,2.05,16.03,4.65,31.96,8.54,47.67,.75,3.04,2.06,5.7,3.89,8.17,13.67,18.49,24.27,38.59,31.13,60.54,1.47,4.69,3.23,5.42,7.29,3.27,5.82-3.08,12.05-5.46,17.62-8.9,20.21-12.49,21.55-25.09,18.65-44.17-2.64-17.37-11.35-32.44-23.73-45.11-4.63-4.74-9.23-9.54-11.58-15.85-1.9-5.13-2.71-10.45,1.52-15.03,4.24-4.58,9.64-4.27,14.86-2.6,9.26,2.97,16.59,8.91,21.88,16.91,16.83,25.45,22.04,53.31,14.35,82.78-6.26,23.95-25.58,35.92-46.78,44.26-8.15,3.21-8.89,6.68-7.34,13.96,5.22,24.61,17.04,46.46,27.77,68.8,10.95,22.8,23.78,44.76,30.19,69.56,1.37,5.31,1.4,10.6,.88,15.84-.8,8.04-5.12,10.42-12.47,7.29-5.83-2.48-11.66-5.02-17.27-7.94-12-6.23-23.82-5.62-35.83-.03-7.33,3.41-14.23,7.87-22.25,9.64-13.55,2.99-26.89,.62-38.14-6.38-14.82-9.22-28.09-6.88-39.99,2.97-12.17,10.08-23.14,9.29-35.2,1.17-3.15-2.12-6.6-3.8-9.95-5.6-8.43-4.51-16.54-4.18-24.16,1.82-5.24,4.13-11.02,7.19-17.26,9.5-15.02,5.58-29.69,5.85-43.98-2.39-4.16-2.4-8.48-4.57-12.84-6.6-14.83-6.9-29.04-4.81-40.44,7.1-7.15,7.47-16.15,8.43-25.05,8.67-9.82,.27-14.36-10.43-8.49-18.77,5.21-7.42,12.12-13.73,20.33-16.82,18.93-7.11,25.97-22.77,30.24-40.04,8.98-36.28,15.73-73.12,27.63-108.66,1.87-5.59-1.68-5.69-5.58-5.82-16.28-.56-32.18-3.43-48.03-7.2-24.15-5.75-37.89-20.54-40.49-45.05-1.44-13.63-1.51-27.4,4.45-40.33,4.94-10.7,13.2-14.68,22.41-11.33,7.11,2.59,9.46,8.14,9.55,14.86,.16,11.94-.17,23.88-.17,35.82,0,11.46,4.56,20.54,14.17,27.06,11.94,8.1,24.46,14.32,39.39,14.21,4.07-.03,6.33-.94,7.61-5.33,10.17-34.72,19.49-69.64,22.54-105.83,1.13-13.39,.61-26.91,1.07-40.36,.14-4.21-1.56-5.25-5.55-6.15-26.65-6-43.03-23.41-45.65-49.16-2.35-23.14,7-41.28,26.84-53.07,19.92-11.84,40.39-10.96,59.48,2.08,18.67,12.75,26.46,31.4,23.31,53.48-3.06,21.46-15.48,36.73-36.18,43.97-5.85,2.05-6.94,4.72-6.88,10.23,.28,24.9,.27,49.8,.01,74.7-.06,5.85,1.14,7.45,7.25,5.89,23.2-5.94,46.9-8.55,70.82-8.47,15.23,.05,30.42,1.56,45.2,5.48,5.33,1.41,7.11,.37,7.03-5.39-.26-21.06-.1-42.12-.1-63.18,.51,0,1.01,0,1.52,.01Zm-58,130.33c-1.41,.03-2.83,.05-4.24,.08-8.2-.4-16.5,.48-24.57-1.72-12.2-2.08-24.02-6.41-36.56-6.41-15.01,0-22.85,10.65-18.27,24.9,2.51,7.8,6.94,14.54,12.43,20.61,42.21,46.66,105.39,37.27,143.18,8.07,8.39-6.48,13.8-15.24,16.06-25.9,4.31-20.33-14.45-40.83-33.76-36.31-11.04,2.58-21.62,6.72-31.84,11.7-7.54,1.36-14.69,4.52-22.43,4.98Zm134.64,106.31c-.86,4.29,1.24,6.5,2.99,8.79,5.38,7.04,10.78,14.03,15.72,21.43,3.68,5.52,5.4,11.15,2.65,17.11-2.98,6.47-9.4,4.63-14.85,4.73-.76,.01-1.57,.1-2.28-.11-10.49-3.11-20.57-.93-30.53,2.38-12.88,4.29-26.43,8.32-39.49,4.64-14.5-4.08-26.86-1.57-39.41,5.03-18.04,9.48-35.53,9.08-52-3.66-3.87-3-8.03-3.96-12.78-3.77-12.1,.47-22.19,6.77-32.79,11.37-13.08,5.66-26.55,10.23-40.43,5.64-11.62-3.85-23.17-5.8-35.07-4.63-16.49,1.62-29.49,10.17-39.87,22.8-1.32,1.6-3.28,3.68-1.32,6.08,1.74,2.13,3.95,.73,5.58-.09,5.86-2.97,11.52-6.34,17.34-9.39,18.43-9.67,37.43-13.92,56.28-2.03,11.01,6.95,21.27,5.69,32.5,1.74,11.69-4.12,22.83-9.82,35.09-12.37,7.75-1.61,15.35-1.64,21.72,3.58,11.33,9.29,23.55,7.56,35.91,3.34,7.66-2.61,15.08-5.95,22.6-8.97,7.82-3.14,15.38-4.33,23.01,1,6.52,4.55,13.87,4.47,21.14,1.78,8.08-2.99,16.05-6.26,24.1-9.33,6.99-2.67,13.98-3.94,21.48-1.51,8.42,2.72,17,4.98,25.58,7.13,10.24,2.57,14.55-1.1,14.99-11.84,.28-6.78-1.28-12.82-4.2-18.99-4.73-10.02-11.47-18.51-18.55-26.76-4.63-5.39-10.04-10.1-15.1-15.11Zm-175.63-307.26c-1.32-3.16,2.8-9.44-2.63-10.69-8.72-2.01-16.04-6.24-23.04-11.13-12.7-8.87-24.75-8.71-36.97,.81-5.38,4.19-11.05,8.9-17.87,9.59-7.06,.72-7.99,4.72-7.97,9.99,.01,2.99,.73,5.99,1.24,8.97,3.86,22.27,24.18,37.79,47.23,36.12,22.15-1.6,39.94-20.74,40.01-43.65Zm106.5,9.27c26.64,1.28,48.48-22.24,45.68-49.05-.33-3.14-.98-5.22-4.58-5.74-7.49-1.09-13.86-4.98-19.77-9.32-13.46-9.89-26.37-9.97-39.58,.5-5.54,4.39-11.65,8.49-18.91,9.17-4.48,.42-5.23,2.37-5.5,6.24-1.79,26.03,16.63,46.95,42.66,48.2Zm-162.74,324.45c-11.53,0-21.37,9.19-21.06,19.67,.31,10.44,9.76,18.92,21.04,18.89,11.13-.03,20.81-8.72,21.03-18.87,.23-10.4-9.69-19.69-21.01-19.69Zm56.17,10.11c.01-7.15-6.07-12.92-13.81-13.1-7.39-.17-14.18,5.81-14.41,12.69-.25,7.3,6.41,13.46,14.42,13.33,8.03-.13,13.79-5.52,13.8-12.92Zm104.25-178.41c.04-5.89-4.71-10.64-9.9-10.05-5.11,.59-9.17,3.07-9.45,8.95-.25,5.16,4.25,9.13,9.98,8.96,5.62-.17,8.83-3.04,9.38-7.86Zm-139.75,146.63c-7.41-.18-11.58,3.22-11.83,8.11-.27,5.11,4.26,9.8,9.64,9.46,5.35-.34,9.5-2.93,9.6-8.77,.1-5.82-3.65-8.52-7.41-8.79Zm148.65-145.99c5.67-.03,7.95-2.44,7.83-6.11-.13-3.81-3.04-5.85-6.78-5.66-3.64,.19-6.16,1.88-5.96,6.22,.2,4.38,2.85,5.49,4.91,5.55Zm-9.58-20.7c-2.98,.26-4.69,1.5-4.53,4.28,.16,2.81,2.06,3.79,4.63,3.66,2.62-.14,4.38-1.67,4.27-4.19-.11-2.64-2.37-3.52-4.37-3.74Z"/><path class="cls-1" d="M1033.18,1039.6c10.22-4.98,20.8-9.11,31.84-11.7,19.31-4.51,38.07,15.98,33.76,36.31-2.26,10.66-7.68,19.42-16.06,25.9-37.79,29.21-100.97,38.59-143.18-8.07-5.49-6.07-9.92-12.81-12.43-20.61-4.58-14.24,3.26-24.89,18.27-24.9,12.54,0,24.36,4.33,36.56,6.4,0,5.28-.34,10.59,.09,15.84,.6,7.44,5.92,11.92,13.01,11.63,6.72-.28,11.29-5.05,11.47-12.17,.11-4.52,.01-9.05,0-13.58,1.41-.03,2.83-.05,4.24-.08,.02,5.29-.15,10.58,.11,15.86,.28,5.66,3.58,9.37,8.88,10.86,5.32,1.5,10.93,.28,13.12-4.71,3.81-8.66,3.96-17.95,.31-26.99Z"/><path class="cls-5" d="M1145.4,1150.89c5.06,5.01,10.48,9.72,15.1,15.11,7.08,8.25,13.81,16.74,18.55,26.76,2.92,6.17,4.48,12.21,4.2,18.99-.44,10.73-4.75,14.4-14.99,11.84-8.59-2.15-17.16-4.41-25.58-7.13-7.49-2.42-14.49-1.16-21.48,1.51-8.05,3.07-16.02,6.34-24.1,9.33-7.27,2.69-14.62,2.77-21.14-1.78-7.63-5.33-15.19-4.14-23.01-1-7.52,3.02-14.94,6.35-22.6,8.97-12.36,4.22-24.57,5.95-35.91-3.34-6.38-5.22-13.98-5.19-21.72-3.58-12.26,2.55-23.39,8.25-35.09,12.37-11.23,3.96-21.5,5.21-32.5-1.74-18.85-11.89-37.85-7.64-56.28,2.03-5.82,3.05-11.48,6.42-17.34,9.39-1.63,.83-3.84,2.22-5.58,.09-1.96-2.4,0-4.48,1.32-6.08,10.38-12.63,23.38-21.18,39.87-22.8,11.9-1.17,23.46,.78,35.07,4.63,13.88,4.6,27.35,.03,40.43-5.64,10.61-4.59,20.69-10.9,32.79-11.37,4.76-.18,8.91,.78,12.78,3.77,16.47,12.73,33.96,13.14,52,3.66,12.55-6.6,24.91-9.11,39.41-5.03,13.06,3.68,26.61-.35,39.49-4.64,9.96-3.32,20.04-5.5,30.53-2.38,.71,.21,1.52,.12,2.28,.11,5.44-.1,11.86,1.74,14.85-4.73,2.74-5.95,1.03-11.59-2.65-17.11-4.93-7.39-10.34-14.38-15.72-21.43-1.75-2.29-3.85-4.5-2.99-8.79Z"/><path class="cls-6" d="M969.77,843.64c-.07,22.91-17.86,42.04-40.01,43.65-23.06,1.67-43.38-13.86-47.23-36.12-.52-2.98-1.23-5.97-1.24-8.97-.02-5.27,.92-9.27,7.97-9.99,6.82-.69,12.49-5.4,17.87-9.59,12.22-9.51,24.27-9.68,36.97-.81,7,4.89,14.31,9.12,23.04,11.13,5.43,1.25,1.32,7.53,2.63,10.69Zm-26.29,2.55c-5.63,3.3-10.68,3.94-13.94-1.54-3.69-6.2-.41-10.96,5.17-14.57-11.8-4.84-21.96-.63-25.48,10.16-2.89,8.89,2.82,19.82,11.78,22.54,10.33,3.13,19.29-3.12,22.47-16.6Z"/><path class="cls-6" d="M1076.27,852.91c-26.03-1.25-44.44-22.17-42.66-48.2,.27-3.88,1.01-5.82,5.5-6.24,7.26-.68,13.37-4.78,18.91-9.17,13.21-10.47,26.12-10.38,39.58-.5,5.91,4.34,12.28,8.23,19.77,9.32,3.6,.52,4.25,2.6,4.58,5.74,2.8,26.81-19.04,50.34-45.68,49.05Zm8-59.87c-9.16-2.63-15.86-.53-20.32,5.76-4.45,6.29-4.26,15.8,.44,21.93,4.45,5.81,11.86,8.03,18.98,5.69,7.43-2.45,11.31-8.49,11.15-18.09-4.78,2.96-9.38,3.02-12.69-1.6-3.47-4.84-1.79-9.36,2.44-13.69Z"/><path class="cls-3" d="M913.53,1177.36c11.32,0,21.24,9.29,21.01,19.69-.22,10.16-9.9,18.84-21.03,18.87-11.27,.03-20.72-8.46-21.04-18.89-.31-10.48,9.53-19.67,21.06-19.67Z"/><path class="cls-6" d="M1033.18,1039.6c3.65,9.04,3.49,18.33-.31,26.99-2.2,5-7.8,6.21-13.12,4.71-5.3-1.49-8.6-5.2-8.88-10.86-.26-5.28-.09-10.57-.11-15.86,7.74-.46,14.89-3.62,22.43-4.98Z"/><path class="cls-3" d="M969.7,1187.47c-.01,7.4-5.77,12.8-13.8,12.92-8.01,.12-14.67-6.04-14.42-13.33,.23-6.88,7.03-12.86,14.41-12.69,7.73,.18,13.82,5.95,13.81,13.1Z"/><path class="cls-6" d="M1006.52,1044.66c0,4.53,.11,9.06,0,13.58-.18,7.12-4.75,11.88-11.47,12.17-7.09,.3-12.41-4.19-13.01-11.63-.42-5.25-.09-10.56-.09-15.84,8.08,2.2,16.37,1.31,24.57,1.72Z"/><path class="cls-3" d="M1073.95,1009.05c-.55,4.82-3.76,7.69-9.38,7.86-5.73,.18-10.23-3.8-9.98-8.96,.29-5.88,4.34-8.37,9.45-8.95,5.19-.59,9.94,4.15,9.9,10.05Z"/><path class="cls-3" d="M934.2,1155.69c3.77,.27,7.52,2.98,7.41,8.79-.1,5.84-4.25,8.43-9.6,8.77-5.38,.34-9.91-4.34-9.64-9.46,.26-4.89,4.42-8.29,11.83-8.11Z"/><path class="cls-3" d="M1082.85,1009.7c-2.06-.05-4.71-1.17-4.91-5.55-.2-4.34,2.32-6.03,5.96-6.22,3.75-.19,6.66,1.84,6.78,5.66,.12,3.67-2.16,6.08-7.83,6.11Z"/><path class="cls-3" d="M1073.27,989c2,.23,4.26,1.1,4.37,3.74,.1,2.51-1.65,4.05-4.27,4.19-2.57,.14-4.46-.84-4.63-3.66-.16-2.78,1.55-4.02,4.53-4.28Z"/><path class="cls-1" d="M943.48,846.19c-3.18,13.48-12.14,19.73-22.47,16.6-8.95-2.71-14.67-13.65-11.78-22.54,3.51-10.8,13.68-15.01,25.48-10.16-5.59,3.61-8.87,8.37-5.17,14.57,3.26,5.48,8.32,4.84,13.94,1.54Z"/><path class="cls-1" d="M1084.27,793.04c-4.24,4.33-5.91,8.85-2.44,13.69,3.31,4.63,7.92,4.57,12.69,1.6,.16,9.6-3.71,15.64-11.15,18.09-7.12,2.34-14.53,.12-18.98-5.69-4.7-6.13-4.89-15.64-.44-21.93,4.46-6.29,11.16-8.39,20.32-5.76Z"/></svg>